<?xml version="1.0" encoding="utf-8"?>
<!-- Generator: Adobe Illustrator 22.1.0, SVG Export Plug-In . SVG Version: 6.00 Build 0)  -->
<svg version="1.1" id="Layer_1" xmlns="http://www.w3.org/2000/svg" xmlns:xlink="http://www.w3.org/1999/xlink" x="0px" y="0px"
	 viewBox="0 0 3932.6 2097.9" style="enable-background:new 0 0 3932.6 2097.9;" xml:space="preserve">
<style type="text/css">
	.st0{fill:#00CDB6;}
	.st1{fill:#004862;}
	.st2{fill:url(#SVGID_1_);}
	.st3{fill:url(#SVGID_2_);}
	.st4{fill:url(#SVGID_3_);}
	.st5{fill:url(#SVGID_4_);}
	.st6{fill:url(#SVGID_5_);}
	.st7{fill:url(#SVGID_6_);}
	.st8{fill:url(#SVGID_7_);}
	.st9{fill:url(#SVGID_8_);}
	.st10{fill:url(#SVGID_9_);}
	.st11{fill:url(#SVGID_10_);}
	.st12{fill:url(#SVGID_11_);}
	.st13{fill:url(#SVGID_12_);}
	.st14{fill:url(#SVGID_13_);}
	.st15{clip-path:url(#XMLID_2_);fill:#FFFFFF;}
	.st16{fill:url(#SVGID_14_);}
	.st17{fill:url(#SVGID_15_);}
	.st18{clip-path:url(#XMLID_3_);fill:#FFFFFF;}
	.st19{fill:url(#SVGID_16_);}
	.st20{fill:url(#SVGID_17_);}
	.st21{clip-path:url(#XMLID_4_);fill:#F2F2F2;}
</style>
<g>
	<path class="st0" d="M2696.3,1356.9V814.2h217.4v105.5h-108v86.6h102.4v104.3h-102.4v246.4H2696.3z"/>
	<path class="st0" d="M2997,1356.9l52.4-542.7h183.9l51.8,542.7h-103l-7.6-87.8h-65.7l-6.3,87.8H2997z M3117.1,1182.5h49.3
		l-24-276.1h-5.1L3117.1,1182.5z"/>
	<path class="st0" d="M3376.1,1356.9V814.2H3481v542.7H3376.1z"/>
	<path class="st0" d="M3587.8,1356.9V814.2h108.7v450.5h111.8v92.2H3587.8z"/>
	<path class="st0" d="M2606.7,2041.4v-438.5h-64.4v-104.3h237.6v104.3h-64.4v438.5H2606.7z"/>
	<path class="st0" d="M2873.3,2041.4v-542.7h217.4v104.9h-106.8V1709h102.4v102.4h-102.4v124.5h113.7v105.5H2873.3z"/>
	<path class="st0" d="M3228.1,2009.2c-23.8-24.9-35.7-59-35.7-102.4v-250.2c0-53.9,10.7-94.6,32.2-121.9
		c21.5-27.4,55.2-41.1,101.1-41.1c40,0,72.2,11,96.7,32.9c24.4,21.9,36.6,53.5,36.6,94.8v93.5h-108v-80.2c0-15.6-1.9-26.3-5.7-32.2
		c-3.8-5.9-10.3-8.8-19.6-8.8c-9.7,0-16.3,3.4-19.9,10.1c-3.6,6.7-5.4,16.6-5.4,29.7v272.3c0,14.3,2.1,24.7,6.3,31.3
		c4.2,6.5,10.5,9.8,19,9.8c16.8,0,25.3-13.7,25.3-41.1v-97.9h109.3V1910c0,91-45.7,136.5-137.1,136.5
		C3283.6,2046.4,3251.9,2034,3228.1,2009.2z"/>
	<path class="st0" d="M3559.5,2041.4v-542.7h108v194h51.2v-194h108v542.7h-108V1795h-51.2v246.4H3559.5z"/>
</g>
<g>
	<g>
		<path class="st1" d="M2274.6,1355v-271.4h54.3v225.2h55.9v46.1H2274.6z"/>
		<path class="st1" d="M2408.5,1355l26.2-271.4h91.9l25.9,271.4h-51.5l-3.8-43.9h-32.9l-3.2,43.9H2408.5z M2468.5,1267.8h24.6
			l-12-138.1h-2.5L2468.5,1267.8z"/>
	</g>
</g>
<linearGradient id="SVGID_1_" gradientUnits="userSpaceOnUse" x1="742.1757" y1="423.8789" x2="1893.9575" y2="1179.4242">
	<stop  offset="0" style="stop-color:#99EBE2"/>
	<stop  offset="0.556" style="stop-color:#00CDB6"/>
	<stop  offset="0.9996" style="stop-color:#00595D"/>
</linearGradient>
<polyline class="st2" points="606.3,945.9 606.3,945.9 606.3,709.2 861.2,527.1 1143.5,527.1 1380.2,231.3 1534.9,463.4 
	1516.7,627.3 1097.9,945.9 606.3,945.9 "/>
<linearGradient id="SVGID_2_" gradientUnits="userSpaceOnUse" x1="840.4666" y1="69.5583" x2="1487.1976" y2="784.1463">
	<stop  offset="0" style="stop-color:#99EBE2"/>
	<stop  offset="7.004809e-02" style="stop-color:#92EAE0"/>
	<stop  offset="0.1749" style="stop-color:#7DE6DA"/>
	<stop  offset="0.3015" style="stop-color:#5CDFD0"/>
	<stop  offset="0.4438" style="stop-color:#2ED6C3"/>
	<stop  offset="0.5672" style="stop-color:#00CDB6"/>
	<stop  offset="0.9725" style="stop-color:#00595D"/>
</linearGradient>
<polygon class="st3" points="1380.2,231.3 971.8,56.4 1006.9,217.6 861.2,527.1 1143.5,527.1 "/>
<linearGradient id="SVGID_3_" gradientUnits="userSpaceOnUse" x1="1304.1349" y1="1439.8027" x2="1781.9591" y2="2298.2744">
	<stop  offset="0" style="stop-color:#99EBE2"/>
	<stop  offset="0.4927" style="stop-color:#00CDB6"/>
	<stop  offset="0.9987" style="stop-color:#00595D"/>
</linearGradient>
<polygon class="st4" points="790.1,1988.7 1962.8,1437.5 2254.1,1674.2 2037.6,2027.9 "/>
<linearGradient id="SVGID_4_" gradientUnits="userSpaceOnUse" x1="905.9323" y1="1183.2261" x2="1713.2517" y2="2501.7688">
	<stop  offset="1.722756e-03" style="stop-color:#99EBE2"/>
	<stop  offset="0.4621" style="stop-color:#00CDB6"/>
	<stop  offset="0.9987" style="stop-color:#00595D"/>
</linearGradient>
<polygon class="st5" points="1753.4,945.9 1006.9,1364.7 351.4,1437.5 105.6,1710.6 287.7,2038.3 790.1,1988.7 1962.8,1437.5 
	2008.3,1118.9 "/>
<linearGradient id="SVGID_5_" gradientUnits="userSpaceOnUse" x1="948.4808" y1="827.4727" x2="1265.8621" y2="1556.3196">
	<stop  offset="2.604167e-03" style="stop-color:#99EBE2"/>
	<stop  offset="0.4634" style="stop-color:#00CDB6"/>
	<stop  offset="1" style="stop-color:#00595D"/>
</linearGradient>
<polygon class="st6" points="351.4,1437.5 351.4,1091.6 606.3,945.9 1097.9,945.9 1516.7,627.3 1749.6,686 1753.4,945.9 
	1006.9,1430.3 "/>
<linearGradient id="SVGID_6_" gradientUnits="userSpaceOnUse" x1="1139.9418" y1="961.5124" x2="1738.5072" y2="2323.9851">
	<stop  offset="0" style="stop-color:#99EBE2"/>
	<stop  offset="0.4927" style="stop-color:#00CDB6"/>
	<stop  offset="0.9987" style="stop-color:#00595D"/>
</linearGradient>
<polygon class="st7" points="790.1,1988.7 2254.1,1674.2 2037.6,2027.9 "/>
<linearGradient id="SVGID_7_" gradientUnits="userSpaceOnUse" x1="140.4455" y1="1362.6976" x2="710.977" y2="2294.5098">
	<stop  offset="1.722756e-03" style="stop-color:#99EBE2"/>
	<stop  offset="0.4621" style="stop-color:#00CDB6"/>
	<stop  offset="0.9987" style="stop-color:#00595D"/>
</linearGradient>
<polygon class="st8" points="105.6,1710.6 790.1,1988.7 287.7,2038.3 "/>
<linearGradient id="SVGID_8_" gradientUnits="userSpaceOnUse" x1="721.9165" y1="1063.9875" x2="1428.9044" y2="2218.6655">
	<stop  offset="1.722756e-03" style="stop-color:#99EBE2"/>
	<stop  offset="0.4621" style="stop-color:#00CDB6"/>
	<stop  offset="0.9987" style="stop-color:#00595D"/>
</linearGradient>
<polygon class="st9" points="105.6,1710.6 790.1,1988.7 1962.8,1437.5 "/>
<linearGradient id="SVGID_9_" gradientUnits="userSpaceOnUse" x1="754.9966" y1="663.561" x2="1512.2673" y2="1567.835">
	<stop  offset="2.604167e-03" style="stop-color:#99EBE2"/>
	<stop  offset="0.4542" style="stop-color:#00CDB6"/>
	<stop  offset="1" style="stop-color:#00595D"/>
</linearGradient>
<polygon class="st10" points="351.4,1091.6 1006.9,1430.3 1753.4,945.9 "/>
<linearGradient id="SVGID_10_" gradientUnits="userSpaceOnUse" x1="814.4434" y1="533.0276" x2="1232.6577" y2="1121.9513">
	<stop  offset="0" style="stop-color:#99EBE2"/>
	<stop  offset="0.9419" style="stop-color:#00CDB6"/>
</linearGradient>
<polygon class="st11" points="606.3,709.2 861.2,527.1 1143.5,527.1 "/>
<linearGradient id="SVGID_11_" gradientUnits="userSpaceOnUse" x1="818.0604" y1="325.3893" x2="1379.1508" y2="1115.5088">
	<stop  offset="0" style="stop-color:#99EBE2"/>
	<stop  offset="0.4539" style="stop-color:#00CDB6"/>
	<stop  offset="0.9996" style="stop-color:#00595D"/>
</linearGradient>
<polygon class="st12" points="606.3,709.2 1097.9,945.9 1516.7,627.3 "/>
<linearGradient id="SVGID_12_" gradientUnits="userSpaceOnUse" x1="475.613" y1="-19.4127" x2="1005.54" y2="1339.1584">
	<stop  offset="0" style="stop-color:#99EBE2"/>
	<stop  offset="6.674230e-02" style="stop-color:#92EAE0"/>
	<stop  offset="0.1666" style="stop-color:#7DE6DA"/>
	<stop  offset="0.2873" style="stop-color:#5CDFD0"/>
	<stop  offset="0.4229" style="stop-color:#2ED6C3"/>
	<stop  offset="0.5404" style="stop-color:#00CDB6"/>
	<stop  offset="0.9872" style="stop-color:#00595D"/>
</linearGradient>
<polygon class="st13" points="606.3,709.2 606.3,945.9 1097.9,945.9 "/>
<linearGradient id="SVGID_13_" gradientUnits="userSpaceOnUse" x1="234.4622" y1="412.6437" x2="1036.3676" y2="2254.1707">
	<stop  offset="2.604167e-03" style="stop-color:#99EBE2"/>
	<stop  offset="0.4634" style="stop-color:#00CDB6"/>
	<stop  offset="1" style="stop-color:#00595D"/>
</linearGradient>
<polygon class="st14" points="351.4,1437.5 1006.9,1430.3 351.4,1091.6 "/>
<g>
	<defs>
		<ellipse id="XMLID_18_" cx="898.5" cy="1120.3" rx="108.4" ry="140.7"/>
	</defs>
	<use xlink:href="#XMLID_18_"  style="overflow:visible;fill:#F2F2F2;"/>
	<clipPath id="XMLID_2_">
		<use xlink:href="#XMLID_18_"  style="overflow:visible;"/>
	</clipPath>
	<polygon class="st15" points="730.4,1052.2 1097.9,1014 1034.2,862.5 730,945.9 	"/>
</g>
<linearGradient id="SVGID_14_" gradientUnits="userSpaceOnUse" x1="1215.0945" y1="1253.059" x2="1549.0634" y2="1798.5087">
	<stop  offset="1.722756e-03" style="stop-color:#99EBE2"/>
	<stop  offset="0.4621" style="stop-color:#00CDB6"/>
	<stop  offset="0.9987" style="stop-color:#00595D"/>
</linearGradient>
<polygon class="st16" points="790.1,1988.7 1962.8,1437.5 2008.3,1118.9 "/>
<linearGradient id="SVGID_15_" gradientUnits="userSpaceOnUse" x1="1221.0903" y1="774.0774" x2="1561.316" y2="1389.1532">
	<stop  offset="2.604167e-03" style="stop-color:#99EBE2"/>
	<stop  offset="0.2717" style="stop-color:#00CDB6"/>
	<stop  offset="1" style="stop-color:#00595D"/>
</linearGradient>
<polygon class="st17" points="1749.6,686 1753.4,945.9 1006.9,1430.3 "/>
<g>
	<defs>
		<ellipse id="XMLID_17_" cx="1409" cy="1120.3" rx="108.4" ry="140.7"/>
	</defs>
	<use xlink:href="#XMLID_17_"  style="overflow:visible;fill:#F2F2F2;"/>
	<clipPath id="XMLID_3_">
		<use xlink:href="#XMLID_17_"  style="overflow:visible;"/>
	</clipPath>
	<polygon class="st18" points="1254,1269.9 1591.8,1050.7 1549.6,1238.1 1409,1292.1 	"/>
</g>
<linearGradient id="SVGID_16_" gradientUnits="userSpaceOnUse" x1="827.1966" y1="36.0779" x2="1459.6884" y2="361.2826">
	<stop  offset="0" style="stop-color:#99EBE2"/>
	<stop  offset="0.1235" style="stop-color:#92EAE0"/>
	<stop  offset="0.3083" style="stop-color:#7DE6DA"/>
	<stop  offset="0.5316" style="stop-color:#5CDFD0"/>
	<stop  offset="0.7825" style="stop-color:#2ED6C3"/>
	<stop  offset="1" style="stop-color:#00CDB6"/>
</linearGradient>
<polygon class="st19" points="1006.9,217.6 1380.2,231.3 971.8,56.4 "/>
<linearGradient id="SVGID_17_" gradientUnits="userSpaceOnUse" x1="1061.3051" y1="453.705" x2="1496.0774" y2="881.3561">
	<stop  offset="2.604167e-03" style="stop-color:#99EBE2"/>
	<stop  offset="0.2717" style="stop-color:#00CDB6"/>
	<stop  offset="1" style="stop-color:#00595D"/>
</linearGradient>
<polygon class="st20" points="1534.9,463.4 1516.7,627.3 1097.9,945.9 "/>
<g>
	<defs>
		<polygon id="XMLID_16_" points="846.2,1434.4 1451.3,1434.4 1340.3,1592.6 972.8,1592.6 		"/>
	</defs>
	<use xlink:href="#XMLID_16_"  style="overflow:visible;fill:#FFFFFF;"/>
	<clipPath id="XMLID_4_">
		<use xlink:href="#XMLID_16_"  style="overflow:visible;"/>
	</clipPath>
	<polygon class="st21" points="846.2,1601.7 1454,1514.7 1435.3,1696.8 	"/>
</g>
<ellipse class="st1" cx="900.7" cy="1122.9" rx="57.6" ry="90.8"/>
<ellipse class="st1" cx="1409.1" cy="1122.9" rx="57.6" ry="90.8"/>
</svg>
