<svg id="Layer_1" data-name="Layer 1" xmlns="http://www.w3.org/2000/svg" viewBox="0 0 2123.37 578.14"><defs><style>.cls-1{fill:#00cdb6;}</style></defs><title>NADYMESS-LOGO-</title><path class="cls-1" d="M293.8,60.36Q279,62.6,272.12,68t-9.39,17q-2.46,11.63-2.46,34.42V368.83l-10.73-.45-12.07.45L43.45,123V294.62q0,26.38,2.68,38.67t11.62,17.88q8.94,5.59,29.06,7.83v8.94q-17.44-1.35-48.29-1.35-24.59,0-38.89,1.35V359q14.76-2.24,21.68-7.6t9.39-17q2.46-11.62,2.46-34.43V98.81q0-17-2.46-24.59a15.44,15.44,0,0,0-9.39-10.28Q14.38,61.26-.37,60.36V51.42q14.31,1.34,38.89,1.34,22.35,0,38.45-1.34L250,264.66V124.73q0-26.37-2.68-38.67T235.68,68.18q-9-5.58-29.06-7.82V51.42q17.43,1.34,48.28,1.34,25,0,38.9-1.34Z" transform="translate(0.37 -17.89)"/><path class="cls-1" d="M313.69,356.31q-14.08-14.74-14.08-38.89,0-20.12,10.5-33.31a71.82,71.82,0,0,1,25.49-20.34,379.46,379.46,0,0,1,38.22-15.2q24.58-8.49,36-15.42t11.4-19V179.28q0-18.78-8.72-29.29t-27.05-10.5q-21.45,0-32.63,10.73,12.51,4.47,19.45,13.41a33.37,33.37,0,0,1,6.93,21q0,15.21-10.29,24.14t-25,8.95q-15.66,0-24.14-9.84t-8.5-24.59q0-12.51,6-21.24t18.56-16.31q12.07-7.16,29.73-11.18a174.2,174.2,0,0,1,38.67-4q21.9,0,38,4.47a59.71,59.71,0,0,1,26.83,15.2,49.28,49.28,0,0,1,13.18,24.14q3.36,14.31,3.36,38.89V334.86c0,7.15.66,12.22,2,15.19s3.94,4.48,7.82,4.48q6.7,0,16.09-7.61l4.48,7.61q-20.12,16.53-49.18,16.54-24.58,0-34.42-9.84T422.1,334.86q-22.35,36.21-65.72,36.21Q327.78,371.07,313.69,356.31Zm107.52-32.19V232.48q-5.37,8.94-22.8,19.67Q381,263.33,372,274.5t-8.94,32.19q0,18.33,7.6,27.05t20.12,8.71Q408.24,342.45,421.21,324.12Z" transform="translate(0.37 -17.89)"/><path class="cls-1" d="M744,348.71q6.27,9.39,22.36,9.39v9.39q-13.86-1.35-27.72-1.34-39.79,0-65.27,6.26V334q-15.21,40.23-58.12,40.24-42,0-66.84-30.63T524,251.26q0-39.34,12.74-66.4t35.32-40.68q22.57-13.63,51.63-13.63,32.64,0,49.63,17v-76q0-20.57-6.49-30t-22.13-9.39V22.8q14.31,1.35,27.72,1.34,38.89,0,65.28-6.25V318.76Q737.73,339.33,744,348.71Zm-84.27-4.47q11.4-10.73,13.64-29.06V158.71q-11.18-15.19-32.64-15.2-23.7,0-36.66,27.27t-12.52,81.37q-.45,54.54,10.51,78.68T633.56,355Q648.31,355,659.71,344.24Z" transform="translate(0.37 -17.89)"/><path class="cls-1" d="M1000.15,348.71q6.26,9.39,22.35,9.39v9.39q-13.86-1.35-27.72-1.34-39.79,0-65.27,6.26V334q-15.21,40.23-58.12,40.24-42,0-66.83-30.63t-24.37-92.31q0-39.34,12.74-66.4t35.32-40.68q22.57-13.63,51.64-13.63,32.63,0,49.62,17v-76q0-20.57-6.48-30T900.9,32.19V22.8q14.29,1.35,27.71,1.34,38.91,0,65.28-6.25V318.76Q993.89,339.33,1000.15,348.71Zm-84.27-4.47q11.4-10.73,13.63-29.06V158.71q-11.18-15.19-32.64-15.2-23.68,0-36.66,27.27T847.7,252.15q-.45,54.54,10.51,78.68T889.72,355Q904.48,355,915.88,344.24Z" transform="translate(0.37 -17.89)"/><path class="cls-1" d="M1238.22,136.81v8.94q-9.39,2.69-16.76,11.4t-14.08,27l-62.05,229.36q-9,23.25-19.67,31.74-13,11.18-38.9,11.18a63.45,63.45,0,0,1-33.75-9.16q-15-9.18-15-26.6,0-13.87,9.84-22.14t25.93-8.27q15.2,0,24.36,7.38t9.17,20.79a28.19,28.19,0,0,1-5.82,17.21q-5.8,7.81-16.54,11.85a84.26,84.26,0,0,0,10.29.44q27.71,0,40.68-35.31l7.15-21.46-112.75-220q-7.15-15.19-13.86-20.12a23.15,23.15,0,0,0-13.86-4.92v-9.38q29.5,2.67,61.25,2.68,26.37,0,62.14-2.68v9.38q-14.31,0-21.24,2c-4.62,1.34-6.93,4.85-6.93,10.5q0,4.93,3.14,12.52l62,130.39,23.36-84.34q7.14-21,7.15-35.77,0-32.62-33.09-35.76v-8.94q21,1.33,43.37,1.34T1238.22,136.81Z" transform="translate(0.37 -17.89)"/><path d="M1582.06,137.71q34.41,0,55.88-1.34l-2.24,8.94q-16.54.9-24.36,3.58a23.41,23.41,0,0,0-12.52,10.28q-4.69,7.61-9.16,24.59l-59,221.74q-3.59,15.21-3.57,21.46,0,9.84,6.48,13t23.47,4l-1.79,8.94q-20.57-1.33-55.43-1.34-39.36,0-58.12,1.34l1.79-8.94q16.53-.88,24.36-3.58a23.4,23.4,0,0,0,12.52-10.28q4.7-7.59,9.16-24.59l64.83-241L1368.81,455.13H1359L1328.57,161,1265.09,401q-3.58,15.21-3.58,22.36,0,11.17,7.38,15.42T1295,444l-2.23,8.94q-15.21-1.33-45.16-1.34-26.39,0-42,1.34l2.24-8.94q15.64-.88,24.14-4.69a29,29,0,0,0,13.41-12.3q4.9-8.47,9.38-25.93l58.12-217.27q3.58-15.19,3.58-21.46,0-9.83-6.48-13t-23.47-4l2.23-8.94q14.31,1.35,39.79,1.34,23.68,0,39.34-1.34l24.59,265.11,168.1-263.77Z" transform="translate(0.37 -17.89)"/><path d="M1742.56,309.83q-40.69,27.29-93,44.26a201,201,0,0,0-4.92,43.37q0,42.92,30.85,42.91,38.45,0,68.84-44.7l7.16,3.58a137.09,137.09,0,0,1-38.67,42.24q-24.37,17.65-51.19,17.66-27.72,0-43.37-16.09t-15.64-46.95q0-34,19.89-76.67a218.71,218.71,0,0,1,53.87-72.64q34-30,73.77-30,14.29,0,23.69,7.6t9.39,21.91Q1783.24,282.56,1742.56,309.83Zm-34.2-67.73q-17.67,16.77-33.09,44.48a248.29,248.29,0,0,0-23.47,59q42.48-14.76,60.8-28.61a90.54,90.54,0,0,0,25.71-31.52,89.12,89.12,0,0,0,9.16-40q0-12.08-1.78-16.1t-5.37-4Q1726,225.34,1708.36,242.1Z" transform="translate(0.37 -17.89)"/><path d="M1824.14,449.32a60.42,60.42,0,0,0,11.85.89q20.12,0,32.63-12.07t12.52-34a75.65,75.65,0,0,0-5.37-27.94q-5.36-13.64-17.88-31.07-15.2-20.56-22.13-33.75t-6.93-31.07a59.23,59.23,0,0,1,9.39-32.86,63.87,63.87,0,0,1,25.26-22.58,75.57,75.57,0,0,1,34.65-8q23.23,0,38.89,8.72t15.65,30.18a27.67,27.67,0,0,1-5.14,15.65q-5.15,7.61-15.43,7.59a16.92,16.92,0,0,1-12.74-5.36,18.62,18.62,0,0,1-5.14-13.41q0-14.31,12.52-29.95-8.51-5.37-22.35-5.37-17,0-27.94,11.4t-11,31.07q0,11.63,4,19.89t14.75,24.37l8,11.63q13.43,20.56,19.9,35.31a74.88,74.88,0,0,1,6.48,30.4,64.81,64.81,0,0,1-10.51,36.22,71.6,71.6,0,0,1-28.16,25,83.46,83.46,0,0,1-38.22,8.94q-25.48,0-42.92-10.95t-17.44-33.31a24.19,24.19,0,0,1,4.25-13.86c2.84-4.17,7.22-6.26,13.19-6.26q9.82,0,14.75,8.05t4.92,20.12q0,7.6-3.13,23.25A36.15,36.15,0,0,0,1824.14,449.32Z" transform="translate(0.37 -17.89)"/><path d="M1994.47,449.32a60.42,60.42,0,0,0,11.85.89q20.12,0,32.63-12.07t12.52-34a75.65,75.65,0,0,0-5.37-27.94q-5.36-13.64-17.88-31.07-15.2-20.56-22.13-33.75t-6.93-31.07a59.23,59.23,0,0,1,9.39-32.86,63.87,63.87,0,0,1,25.26-22.58,75.57,75.57,0,0,1,34.65-8q23.23,0,38.89,8.72T2123,255.74a27.67,27.67,0,0,1-5.14,15.65q-5.15,7.61-15.43,7.59a16.92,16.92,0,0,1-12.74-5.36,18.62,18.62,0,0,1-5.14-13.41q0-14.31,12.52-29.95-8.51-5.37-22.35-5.37-17,0-27.94,11.4t-11,31.07q0,11.63,4,19.89t14.75,24.37l8.05,11.63q13.41,20.56,19.89,35.31A74.88,74.88,0,0,1,2089,389a64.88,64.88,0,0,1-10.5,36.22,71.7,71.7,0,0,1-28.17,25,83.46,83.46,0,0,1-38.22,8.94q-25.49,0-42.92-10.95t-17.44-33.31A24.19,24.19,0,0,1,1956,401c2.84-4.17,7.22-6.26,13.19-6.26q9.82,0,14.75,8.05t4.92,20.12q0,7.6-3.13,23.25A36.3,36.3,0,0,0,1994.47,449.32Z" transform="translate(0.37 -17.89)"/><path d="M42.84,500.13H63.3v5.38H36.43V458.22h6.41Z" transform="translate(0.37 -17.89)"/><path d="M64,455.75a11.8,11.8,0,0,1,1.81,6.33,12,12,0,0,1-1.46,5.73,18.11,18.11,0,0,1-4.08,5l-1.81-1.13a.75.75,0,0,1-.35-.36.91.91,0,0,1-.08-.39,1.09,1.09,0,0,1,.33-.8,13.94,13.94,0,0,0,1-1.37,12.46,12.46,0,0,0,.89-1.55,9.58,9.58,0,0,0,.63-1.7,7.62,7.62,0,0,0,.23-1.88,8,8,0,0,0-.32-2.17,9.25,9.25,0,0,0-1.07-2.38,1.39,1.39,0,0,1-.23-.73,1.22,1.22,0,0,1,.89-1.15Z" transform="translate(0.37 -17.89)"/><path d="M96.3,505.51H93.69a3.22,3.22,0,0,1-1.39-.26,1.47,1.47,0,0,1-.69-1.13L91,501c-.88.79-1.74,1.5-2.57,2.13a14.3,14.3,0,0,1-2.64,1.58,13.71,13.71,0,0,1-3,1,16.86,16.86,0,0,1-3.48.33,11.72,11.72,0,0,1-3.65-.55,8.26,8.26,0,0,1-3-1.64,7.86,7.86,0,0,1-2-2.76,9.82,9.82,0,0,1-.74-4,7.35,7.35,0,0,1,1.09-3.82A9.59,9.59,0,0,1,74.57,490a22.79,22.79,0,0,1,6.35-2.33,43.07,43.07,0,0,1,9.6-.91v-2.63a9.08,9.08,0,0,0-1.67-5.92,6,6,0,0,0-4.93-2,10.52,10.52,0,0,0-3.61.54A14,14,0,0,0,77.77,478c-.72.46-1.33.86-1.85,1.23a2.69,2.69,0,0,1-1.54.54,1.77,1.77,0,0,1-1-.31,2.52,2.52,0,0,1-.71-.78l-1-1.88a19.17,19.17,0,0,1,6-4,18.47,18.47,0,0,1,7.1-1.32,12.57,12.57,0,0,1,5,.92A10.27,10.27,0,0,1,93.29,475a11,11,0,0,1,2.25,4,16.81,16.81,0,0,1,.76,5.15Zm-15.25-3.6a12,12,0,0,0,2.84-.31,11.45,11.45,0,0,0,2.42-.89,13,13,0,0,0,2.18-1.4,18.66,18.66,0,0,0,2-1.89v-6.89a39.8,39.8,0,0,0-6.9.51A19.31,19.31,0,0,0,79,492.39a6.48,6.48,0,0,0-2.59,1.95,4.26,4.26,0,0,0-.81,2.53,5.7,5.7,0,0,0,.43,2.29,4.24,4.24,0,0,0,1.16,1.57,4.52,4.52,0,0,0,1.71.9A7.77,7.77,0,0,0,81.05,501.91Z" transform="translate(0.37 -17.89)"/><path d="M128,478a2.62,2.62,0,0,1-.53.56,1.27,1.27,0,0,1-.76.2,1.9,1.9,0,0,1-1.07-.41,15.77,15.77,0,0,0-1.47-.91,12.42,12.42,0,0,0-2.16-.91,10.4,10.4,0,0,0-3.12-.41,10.16,10.16,0,0,0-4.32.87,8.36,8.36,0,0,0-3.15,2.53,11.4,11.4,0,0,0-1.92,4,19.77,19.77,0,0,0-.64,5.25,19.21,19.21,0,0,0,.69,5.39,11.46,11.46,0,0,0,2,4,8.22,8.22,0,0,0,3,2.45,9.45,9.45,0,0,0,4,.84,9.8,9.8,0,0,0,5.84-1.65,16.14,16.14,0,0,0,1.52-1.14,1.84,1.84,0,0,1,1.19-.51,1.22,1.22,0,0,1,1.12.56l1.65,2.14a12.55,12.55,0,0,1-5.44,3.91,19.22,19.22,0,0,1-6.9,1.24,14.57,14.57,0,0,1-5.82-1.15,13.26,13.26,0,0,1-4.67-3.35,15.94,15.94,0,0,1-3.12-5.4,21.62,21.62,0,0,1-1.14-7.29,22.08,22.08,0,0,1,1-6.9,15.6,15.6,0,0,1,3-5.46,13.86,13.86,0,0,1,4.94-3.58,16.59,16.59,0,0,1,6.73-1.29,15.83,15.83,0,0,1,6.2,1.14,14.81,14.81,0,0,1,4.79,3.22Z" transform="translate(0.37 -17.89)"/><path d="M146.16,506a8.08,8.08,0,0,1-6.09-2.21,8.83,8.83,0,0,1-2.13-6.37V477h-4a1.34,1.34,0,0,1-.9-.32,1.2,1.2,0,0,1-.36-1v-2.34l5.48-.7,1.35-10.32a1.29,1.29,0,0,1,.43-.81,1.36,1.36,0,0,1,.93-.32h3v11.52h9.57V477h-9.57v20.06a4.3,4.3,0,0,0,1,3.14,3.57,3.57,0,0,0,2.64,1,4.56,4.56,0,0,0,1.6-.25,6.39,6.39,0,0,0,1.17-.54c.33-.2.61-.38.84-.55a1.13,1.13,0,0,1,.61-.24,1,1,0,0,1,.83.56l1.71,2.8a10.87,10.87,0,0,1-3.66,2.23A12.4,12.4,0,0,1,146.16,506Z" transform="translate(0.37 -17.89)"/><path d="M165.73,472.08V493.4a8.83,8.83,0,0,0,1.75,5.87,6.48,6.48,0,0,0,5.28,2.08,10.06,10.06,0,0,0,4.85-1.22,15.23,15.23,0,0,0,4.19-3.4V472.08h5.87v33.43h-3.5a1.5,1.5,0,0,1-1.58-1.22l-.46-3.6a18.24,18.24,0,0,1-4.89,3.88A12.77,12.77,0,0,1,171,506a12,12,0,0,1-4.84-.91,9.61,9.61,0,0,1-3.51-2.56,10.76,10.76,0,0,1-2.13-4,17.92,17.92,0,0,1-.71-5.18V472.08Z" transform="translate(0.37 -17.89)"/><path d="M221.89,505.51h-2.6a3.19,3.19,0,0,1-1.39-.26,1.47,1.47,0,0,1-.69-1.13l-.66-3.1q-1.32,1.19-2.58,2.13a14.18,14.18,0,0,1-5.59,2.56,17,17,0,0,1-3.48.33,11.68,11.68,0,0,1-3.65-.55,8.18,8.18,0,0,1-2.95-1.64,7.86,7.86,0,0,1-2-2.76,9.82,9.82,0,0,1-.74-4,7.35,7.35,0,0,1,1.09-3.82,9.48,9.48,0,0,1,3.51-3.27,23,23,0,0,1,6.35-2.33,43.1,43.1,0,0,1,9.61-.91v-2.63a9.08,9.08,0,0,0-1.67-5.92,6,6,0,0,0-4.93-2,10.58,10.58,0,0,0-3.62.54,14.33,14.33,0,0,0-2.54,1.22c-.71.46-1.33.86-1.85,1.23a2.64,2.64,0,0,1-1.53.54,1.75,1.75,0,0,1-1-.31,2.41,2.41,0,0,1-.71-.78l-1.06-1.88a19.1,19.1,0,0,1,6-4,18.42,18.42,0,0,1,7.09-1.32,12.65,12.65,0,0,1,5,.92,10.27,10.27,0,0,1,3.66,2.57,10.86,10.86,0,0,1,2.24,4,16.52,16.52,0,0,1,.76,5.15Zm-15.24-3.6a11.85,11.85,0,0,0,2.83-.31,11.54,11.54,0,0,0,2.43-.89,13.42,13.42,0,0,0,2.18-1.4,18.66,18.66,0,0,0,2-1.89v-6.89a39.72,39.72,0,0,0-6.9.51,19.31,19.31,0,0,0-4.62,1.35,6.41,6.41,0,0,0-2.59,1.95,4.26,4.26,0,0,0-.81,2.53,5.54,5.54,0,0,0,.43,2.29,4.24,4.24,0,0,0,1.16,1.57,4.52,4.52,0,0,0,1.71.9A7.77,7.77,0,0,0,206.65,501.91Z" transform="translate(0.37 -17.89)"/><path d="M237.34,456.9v48.61h-5.88V456.9Z" transform="translate(0.37 -17.89)"/><path d="M255.55,461.59a3.77,3.77,0,0,1-.34,1.6,4.86,4.86,0,0,1-.93,1.32,4.3,4.3,0,0,1-1.34.91,4.14,4.14,0,0,1-1.61.33,4,4,0,0,1-1.6-.33,4.32,4.32,0,0,1-1.32-.91,4.39,4.39,0,0,1-.91-1.32,3.92,3.92,0,0,1-.33-1.6,4.14,4.14,0,0,1,.33-1.64,4.34,4.34,0,0,1,2.23-2.26,3.85,3.85,0,0,1,1.6-.33,4,4,0,0,1,1.61.33,4.3,4.3,0,0,1,1.34.91,4.71,4.71,0,0,1,.93,1.35A4,4,0,0,1,255.55,461.59Zm-1.32,10.49v33.43h-5.87V472.08Z" transform="translate(0.37 -17.89)"/><path d="M274.72,506a8,8,0,0,1-6.08-2.21,8.83,8.83,0,0,1-2.13-6.37V477h-4a1.31,1.31,0,0,1-.89-.32,1.2,1.2,0,0,1-.36-1v-2.34l5.48-.7,1.35-10.32a1.25,1.25,0,0,1,.43-.81,1.36,1.36,0,0,1,.92-.32h3v11.52H282V477h-9.57v20.06a4.3,4.3,0,0,0,1,3.14,3.6,3.6,0,0,0,2.64,1,4.62,4.62,0,0,0,1.61-.25,6.39,6.39,0,0,0,1.17-.54c.33-.2.61-.38.84-.55a1.11,1.11,0,0,1,.61-.24,1,1,0,0,1,.82.56l1.72,2.8a10.87,10.87,0,0,1-3.66,2.23A12.45,12.45,0,0,1,274.72,506Z" transform="translate(0.37 -17.89)"/><path d="M302.44,471.55a15,15,0,0,1,5.55,1,12.6,12.6,0,0,1,4.39,2.9,13.26,13.26,0,0,1,2.88,4.69,18,18,0,0,1,1,6.35,4,4,0,0,1-.29,1.85,1.25,1.25,0,0,1-1.13.46H292.64a18.57,18.57,0,0,0,.86,5.51,11.18,11.18,0,0,0,2.18,3.91,8.66,8.66,0,0,0,3.3,2.35,11.43,11.43,0,0,0,4.29.77,12.64,12.64,0,0,0,3.81-.51,17.56,17.56,0,0,0,2.76-1.11,20.35,20.35,0,0,0,1.93-1.1,2.54,2.54,0,0,1,1.33-.51,1.26,1.26,0,0,1,1.12.56l1.65,2.14a11.09,11.09,0,0,1-2.6,2.3,16.36,16.36,0,0,1-3.25,1.6,20.71,20.71,0,0,1-3.58.94,21.91,21.91,0,0,1-3.67.31,17,17,0,0,1-6.38-1.17,14.07,14.07,0,0,1-5.05-3.43,15.69,15.69,0,0,1-3.32-5.6,22.76,22.76,0,0,1-1.19-7.65,19.42,19.42,0,0,1,1.08-6.54,15.41,15.41,0,0,1,3.08-5.26,14.27,14.27,0,0,1,4.92-3.5A16.25,16.25,0,0,1,302.44,471.55Zm.14,4.33a9,9,0,0,0-6.7,2.45,11.62,11.62,0,0,0-3,6.82H311a11.8,11.8,0,0,0-.56-3.75,8.18,8.18,0,0,0-1.65-2.93,7.3,7.3,0,0,0-2.65-1.92A9,9,0,0,0,302.58,475.88Zm9.57-18.19-7.69,8.52a3.28,3.28,0,0,1-.91.71,2.7,2.7,0,0,1-1.14.21h-3.5l4.89-8a3.28,3.28,0,0,1,1-1.1,3,3,0,0,1,1.6-.35Z" transform="translate(0.37 -17.89)"/><path d="M355.67,477.59a1.29,1.29,0,0,1-1.22.73,2.31,2.31,0,0,1-1.12-.36c-.42-.25-.93-.52-1.54-.81a13.41,13.41,0,0,0-2.16-.83,10.36,10.36,0,0,0-3-.38,8.83,8.83,0,0,0-2.67.38,6.37,6.37,0,0,0-2,1,4.6,4.6,0,0,0-1.29,1.54,4.17,4.17,0,0,0-.44,1.89,3.19,3.19,0,0,0,.74,2.15,6.48,6.48,0,0,0,2,1.48,17.12,17.12,0,0,0,2.78,1.11q1.55.48,3.18,1c1.09.36,2.15.77,3.18,1.21a11.61,11.61,0,0,1,2.78,1.65,7.6,7.6,0,0,1,2,2.42,7.51,7.51,0,0,1,.74,3.45,10.9,10.9,0,0,1-.82,4.27,9.35,9.35,0,0,1-2.44,3.4,11.76,11.76,0,0,1-4,2.26,16.33,16.33,0,0,1-5.42.83,16.83,16.83,0,0,1-6.33-1.14,16.07,16.07,0,0,1-4.82-2.92l1.39-2.25a1.94,1.94,0,0,1,.62-.65,1.71,1.71,0,0,1,1-.24,2.19,2.19,0,0,1,1.25.47c.44.3,1,.65,1.6,1a12.9,12.9,0,0,0,2.28,1,10.33,10.33,0,0,0,3.35.46,9.07,9.07,0,0,0,3-.44,6.29,6.29,0,0,0,2.15-1.21,4.77,4.77,0,0,0,1.27-1.74,5.6,5.6,0,0,0,.41-2.12,3.52,3.52,0,0,0-.74-2.29,6.29,6.29,0,0,0-2-1.55,16.38,16.38,0,0,0-2.79-1.12c-1.05-.32-2.11-.66-3.2-1a32.38,32.38,0,0,1-3.2-1.21,11.1,11.1,0,0,1-2.79-1.69,7.82,7.82,0,0,1-2-2.53,8.22,8.22,0,0,1-.74-3.65,8.81,8.81,0,0,1,.79-3.67,9.07,9.07,0,0,1,2.31-3.11,11.46,11.46,0,0,1,3.73-2.13,15.16,15.16,0,0,1,5-.79,16,16,0,0,1,5.92,1,14.09,14.09,0,0,1,4.54,2.86Z" transform="translate(0.37 -17.89)"/><path d="M375.31,506a8.08,8.08,0,0,1-6.09-2.21,8.83,8.83,0,0,1-2.13-6.37V477h-4a1.31,1.31,0,0,1-.89-.32,1.2,1.2,0,0,1-.36-1v-2.34l5.48-.7,1.35-10.32a1.25,1.25,0,0,1,.43-.81,1.36,1.36,0,0,1,.92-.32h3v11.52h9.57V477H373v20.06a4.26,4.26,0,0,0,1,3.14,3.57,3.57,0,0,0,2.64,1,4.56,4.56,0,0,0,1.6-.25,6.39,6.39,0,0,0,1.17-.54c.33-.2.61-.38.84-.55a1.11,1.11,0,0,1,.61-.24,1,1,0,0,1,.82.56l1.72,2.8a10.87,10.87,0,0,1-3.66,2.23A12.44,12.44,0,0,1,375.31,506Z" transform="translate(0.37 -17.89)"/><path d="M414.34,505.51h-2.6a3.19,3.19,0,0,1-1.39-.26,1.47,1.47,0,0,1-.69-1.13L409,501q-1.32,1.19-2.58,2.13a13.67,13.67,0,0,1-2.64,1.58,13.45,13.45,0,0,1-2.95,1,16.93,16.93,0,0,1-3.48.33,11.72,11.72,0,0,1-3.65-.55,8.18,8.18,0,0,1-2.95-1.64,7.86,7.86,0,0,1-2-2.76,9.82,9.82,0,0,1-.74-4,7.35,7.35,0,0,1,1.09-3.82,9.64,9.64,0,0,1,3.51-3.27,23,23,0,0,1,6.36-2.33,43,43,0,0,1,9.6-.91v-2.63a9.08,9.08,0,0,0-1.67-5.92,6,6,0,0,0-4.93-2,10.48,10.48,0,0,0-3.61.54,14.44,14.44,0,0,0-2.55,1.22c-.71.46-1.33.86-1.84,1.23a2.69,2.69,0,0,1-1.54.54,1.77,1.77,0,0,1-1-.31,2.52,2.52,0,0,1-.71-.78l-1.05-1.88a19.17,19.17,0,0,1,6-4,18.44,18.44,0,0,1,7.1-1.32,12.6,12.6,0,0,1,5,.92,10.27,10.27,0,0,1,3.66,2.57,10.86,10.86,0,0,1,2.24,4,16.52,16.52,0,0,1,.76,5.15Zm-15.24-3.6a12,12,0,0,0,2.84-.31,11.66,11.66,0,0,0,2.42-.89,13,13,0,0,0,2.18-1.4,18.66,18.66,0,0,0,2-1.89v-6.89a39.72,39.72,0,0,0-6.9.51,19.31,19.31,0,0,0-4.62,1.35,6.41,6.41,0,0,0-2.59,1.95,4.26,4.26,0,0,0-.81,2.53,5.7,5.7,0,0,0,.43,2.29,4.24,4.24,0,0,0,1.16,1.57,4.52,4.52,0,0,0,1.71.9A7.77,7.77,0,0,0,399.1,501.91Z" transform="translate(0.37 -17.89)"/><path d="M423.25,505.51V472.08h3.37a1.86,1.86,0,0,1,1.32.36,2.21,2.21,0,0,1,.49,1.26l.4,5.21a15.3,15.3,0,0,1,4.24-5.46,10,10,0,0,1,8.43-1.65,9,9,0,0,1,2.08.87l-.76,4.39a1,1,0,0,1-1,.83,5.46,5.46,0,0,1-1.42-.31,8.89,8.89,0,0,0-2.67-.32,7.59,7.59,0,0,0-5.13,1.78,13.34,13.34,0,0,0-3.45,5.18v21.29Z" transform="translate(0.37 -17.89)"/><path d="M460,506a8.08,8.08,0,0,1-6.09-2.21,8.88,8.88,0,0,1-2.12-6.37V477h-4a1.31,1.31,0,0,1-.89-.32,1.2,1.2,0,0,1-.36-1v-2.34l5.47-.7,1.36-10.32a1.2,1.2,0,0,1,.43-.81,1.36,1.36,0,0,1,.92-.32h3v11.52h9.57V477h-9.57v20.06a4.3,4.3,0,0,0,1,3.14,3.57,3.57,0,0,0,2.64,1,4.52,4.52,0,0,0,1.6-.25,6.39,6.39,0,0,0,1.17-.54c.33-.2.62-.38.85-.55a1.11,1.11,0,0,1,.61-.24,1,1,0,0,1,.82.56l1.72,2.8a10.91,10.91,0,0,1-3.67,2.23A12.4,12.4,0,0,1,460,506Z" transform="translate(0.37 -17.89)"/><path d="M479.55,472.08V493.4a8.83,8.83,0,0,0,1.75,5.87,6.51,6.51,0,0,0,5.28,2.08,10,10,0,0,0,4.85-1.22,14.94,14.94,0,0,0,4.19-3.4V472.08h5.88v33.43H498a1.5,1.5,0,0,1-1.59-1.22l-.46-3.6a18.35,18.35,0,0,1-4.88,3.88,12.81,12.81,0,0,1-6.21,1.47,12,12,0,0,1-4.83-.91,9.56,9.56,0,0,1-3.52-2.56,10.89,10.89,0,0,1-2.12-4,17.58,17.58,0,0,1-.71-5.18V472.08Z" transform="translate(0.37 -17.89)"/><path d="M511.16,516.83V472.08h3.5a1.5,1.5,0,0,1,1.59,1.22l.49,4a18,18,0,0,1,4.9-4.19,12.49,12.49,0,0,1,6.35-1.58,12.17,12.17,0,0,1,5.22,1.1,10.8,10.8,0,0,1,4,3.27,15.61,15.61,0,0,1,2.54,5.36,27.33,27.33,0,0,1,.89,7.36,23.07,23.07,0,0,1-1,6.88,16.79,16.79,0,0,1-2.83,5.51,13.1,13.1,0,0,1-10.6,5,12.45,12.45,0,0,1-5.29-1A11.76,11.76,0,0,1,517,502v14.79Zm14.89-40.59a9.44,9.44,0,0,0-5,1.32,14.34,14.34,0,0,0-4,3.73v16.17a9.52,9.52,0,0,0,3.55,3.07,10.18,10.18,0,0,0,4.3.89,8.41,8.41,0,0,0,7.16-3.34q2.52-3.33,2.51-9.5A23.42,23.42,0,0,0,534,483a11,11,0,0,0-1.66-3.84,6.43,6.43,0,0,0-2.68-2.2A8.88,8.88,0,0,0,526.05,476.24Z" transform="translate(0.37 -17.89)"/><path d="M573.57,471.55a14.91,14.91,0,0,1,5.54,1,12.51,12.51,0,0,1,4.39,2.9,13.43,13.43,0,0,1,2.89,4.69,18.19,18.19,0,0,1,1,6.35,3.8,3.8,0,0,1-.3,1.85,1.23,1.23,0,0,1-1.12.46H563.77a18.59,18.59,0,0,0,.85,5.51,11.34,11.34,0,0,0,2.18,3.91,8.82,8.82,0,0,0,3.3,2.35,11.5,11.5,0,0,0,4.29.77,12.6,12.6,0,0,0,3.81-.51,17.56,17.56,0,0,0,2.76-1.11,20.35,20.35,0,0,0,1.93-1.1,2.56,2.56,0,0,1,1.34-.51,1.29,1.29,0,0,1,1.12.56l1.65,2.14a11.34,11.34,0,0,1-2.61,2.3,16.36,16.36,0,0,1-3.25,1.6,20.71,20.71,0,0,1-3.58.94,21.7,21.7,0,0,1-3.66.31,17.05,17.05,0,0,1-6.39-1.17,14.07,14.07,0,0,1-5-3.43,15.67,15.67,0,0,1-3.31-5.6,22.51,22.51,0,0,1-1.19-7.65,19.42,19.42,0,0,1,1.07-6.54,15.27,15.27,0,0,1,3.09-5.26,14.32,14.32,0,0,1,4.91-3.5A16.3,16.3,0,0,1,573.57,471.55Zm.13,4.33a9.05,9.05,0,0,0-6.7,2.45,11.62,11.62,0,0,0-3,6.82h18.19a11.8,11.8,0,0,0-.57-3.75,8.31,8.31,0,0,0-1.64-2.93,7.42,7.42,0,0,0-2.66-1.92A9,9,0,0,0,573.7,475.88Z" transform="translate(0.37 -17.89)"/><path d="M605.05,506a8.08,8.08,0,0,1-6.09-2.21,8.83,8.83,0,0,1-2.13-6.37V477h-4a1.31,1.31,0,0,1-.89-.32,1.2,1.2,0,0,1-.36-1v-2.34l5.48-.7,1.35-10.32a1.25,1.25,0,0,1,.43-.81,1.36,1.36,0,0,1,.92-.32h3v11.52h9.57V477H602.7v20.06a4.26,4.26,0,0,0,1,3.14,3.57,3.57,0,0,0,2.64,1A4.56,4.56,0,0,0,608,501a6.39,6.39,0,0,0,1.17-.54c.33-.2.61-.38.84-.55a1.13,1.13,0,0,1,.61-.24,1,1,0,0,1,.83.56l1.71,2.8a10.87,10.87,0,0,1-3.66,2.23A12.44,12.44,0,0,1,605.05,506Z" transform="translate(0.37 -17.89)"/><path d="M640.12,461.59a3.77,3.77,0,0,1-.34,1.6,4.65,4.65,0,0,1-.93,1.32,4.37,4.37,0,0,1-1.33.91,4.22,4.22,0,0,1-1.62.33,4.05,4.05,0,0,1-1.6-.33,4.45,4.45,0,0,1-1.32-.91,4.39,4.39,0,0,1-.91-1.32,3.92,3.92,0,0,1-.33-1.6,4.14,4.14,0,0,1,.33-1.64,4.29,4.29,0,0,1,.91-1.35,4.45,4.45,0,0,1,1.32-.91,3.88,3.88,0,0,1,1.6-.33,4,4,0,0,1,1.62.33,4.37,4.37,0,0,1,1.33.91,4.52,4.52,0,0,1,.93,1.35A4,4,0,0,1,640.12,461.59Zm-1.32,10.49v33.43h-5.87V472.08Z" transform="translate(0.37 -17.89)"/><path d="M649.17,505.51V472.08h3.49a1.5,1.5,0,0,1,1.59,1.22l.46,3.63a18.76,18.76,0,0,1,4.87-3.89,12.63,12.63,0,0,1,6.22-1.49,12.13,12.13,0,0,1,4.83.91,9.35,9.35,0,0,1,3.5,2.57,11.32,11.32,0,0,1,2.13,4,17.62,17.62,0,0,1,.73,5.18v21.29h-5.88V484.22a9,9,0,0,0-1.73-5.89,6.5,6.5,0,0,0-5.3-2.09,9.88,9.88,0,0,0-4.86,1.25,16.15,16.15,0,0,0-4.18,3.4v24.62Z" transform="translate(0.37 -17.89)"/><path d="M685.86,505.51V472.08h3.5a1.49,1.49,0,0,1,1.58,1.22l.47,3.63a18.88,18.88,0,0,1,4.86-3.89,12.69,12.69,0,0,1,6.22-1.49,12.18,12.18,0,0,1,4.84.91,9.43,9.43,0,0,1,3.5,2.57,11.65,11.65,0,0,1,2.13,4,17.62,17.62,0,0,1,.72,5.18v21.29h-5.87V484.22a9,9,0,0,0-1.74-5.89,6.48,6.48,0,0,0-5.29-2.09,10,10,0,0,0-4.87,1.25,16,16,0,0,0-4.17,3.4v24.62Z" transform="translate(0.37 -17.89)"/><path d="M736.09,471.55a17.19,17.19,0,0,1,6.61,1.22,14,14,0,0,1,5,3.47,15.29,15.29,0,0,1,3.17,5.43,23.59,23.59,0,0,1,0,14.24,15.38,15.38,0,0,1-3.17,5.41,13.78,13.78,0,0,1-5,3.45,18.83,18.83,0,0,1-13.23,0,14,14,0,0,1-5-3.45,15.44,15.44,0,0,1-3.2-5.41,23.19,23.19,0,0,1,0-14.24,15.35,15.35,0,0,1,3.2-5.43,14.17,14.17,0,0,1,5-3.47A17.27,17.27,0,0,1,736.09,471.55Zm0,29.83q4.95,0,7.39-3.31t2.44-9.26q0-6-2.44-9.3t-7.39-3.34a10.31,10.31,0,0,0-4.36.86,8.09,8.09,0,0,0-3.08,2.48,10.89,10.89,0,0,0-1.85,4,21.22,21.22,0,0,0-.61,5.33,21,21,0,0,0,.61,5.31,10.79,10.79,0,0,0,1.85,3.95,8.13,8.13,0,0,0,3.08,2.46A10.31,10.31,0,0,0,736.09,501.38Z" transform="translate(0.37 -17.89)"/><path d="M754.17,472.08H759a1.84,1.84,0,0,1,1.16.36,2.26,2.26,0,0,1,.66.86l8.48,21.52a16.46,16.46,0,0,1,.72,2.37c.18.8.34,1.58.5,2.35.17-.77.36-1.55.56-2.35a19.73,19.73,0,0,1,.76-2.37l8.58-21.52a1.91,1.91,0,0,1,.64-.87,1.77,1.77,0,0,1,1.11-.35h4.58l-13.62,33.43H767.8Z" transform="translate(0.37 -17.89)"/><path d="M816.74,505.51h-2.61a3.17,3.17,0,0,1-1.38-.26,1.48,1.48,0,0,1-.7-1.13l-.66-3.1c-.88.79-1.73,1.5-2.57,2.13a14.3,14.3,0,0,1-2.64,1.58,13.63,13.63,0,0,1-2.95,1,17,17,0,0,1-3.48.33,11.68,11.68,0,0,1-3.65-.55,8.18,8.18,0,0,1-3-1.64,7.74,7.74,0,0,1-2-2.76,9.65,9.65,0,0,1-.74-4,7.35,7.35,0,0,1,1.09-3.82A9.48,9.48,0,0,1,795,490a22.92,22.92,0,0,1,6.35-2.33,43.1,43.1,0,0,1,9.61-.91v-2.63a9.08,9.08,0,0,0-1.67-5.92,6,6,0,0,0-4.93-2,10.58,10.58,0,0,0-3.62.54,14.33,14.33,0,0,0-2.54,1.22c-.71.46-1.33.86-1.85,1.23a2.66,2.66,0,0,1-1.53.54,1.75,1.75,0,0,1-1-.31,2.41,2.41,0,0,1-.71-.78L792,476.8a19.1,19.1,0,0,1,6-4,18.42,18.42,0,0,1,7.09-1.32,12.57,12.57,0,0,1,5,.92,10.22,10.22,0,0,1,3.67,2.57,10.86,10.86,0,0,1,2.24,4,16.52,16.52,0,0,1,.76,5.15Zm-15.25-3.6a11.94,11.94,0,0,0,2.84-.31,11.54,11.54,0,0,0,2.43-.89,13.42,13.42,0,0,0,2.18-1.4,18.66,18.66,0,0,0,2-1.89v-6.89a39.72,39.72,0,0,0-6.9.51,19.31,19.31,0,0,0-4.62,1.35,6.41,6.41,0,0,0-2.59,1.95,4.26,4.26,0,0,0-.81,2.53,5.54,5.54,0,0,0,.43,2.29,4.22,4.22,0,0,0,1.15,1.57,4.64,4.64,0,0,0,1.72.9A7.69,7.69,0,0,0,801.49,501.91Z" transform="translate(0.37 -17.89)"/><path d="M835.78,506a8.08,8.08,0,0,1-6.09-2.21,8.83,8.83,0,0,1-2.13-6.37V477h-4a1.31,1.31,0,0,1-.89-.32,1.18,1.18,0,0,1-.37-1v-2.34l5.48-.7,1.36-10.32a1.24,1.24,0,0,1,.42-.81,1.38,1.38,0,0,1,.93-.32h3v11.52H843V477h-9.57v20.06a4.3,4.3,0,0,0,1,3.14,3.57,3.57,0,0,0,2.64,1,4.52,4.52,0,0,0,1.6-.25,6.39,6.39,0,0,0,1.17-.54c.33-.2.61-.38.84-.55a1.16,1.16,0,0,1,.62-.24,1,1,0,0,1,.82.56l1.72,2.8a11,11,0,0,1-3.67,2.23A12.4,12.4,0,0,1,835.78,506Z" transform="translate(0.37 -17.89)"/><path d="M858.12,461.59a3.63,3.63,0,0,1-.35,1.6,4.61,4.61,0,0,1-.92,1.32,4.3,4.3,0,0,1-1.34.91,4.14,4.14,0,0,1-1.61.33,4,4,0,0,1-1.6-.33,4.32,4.32,0,0,1-1.32-.91,4.39,4.39,0,0,1-.91-1.32,3.92,3.92,0,0,1-.33-1.6,4.14,4.14,0,0,1,.33-1.64,4.34,4.34,0,0,1,2.23-2.26,3.85,3.85,0,0,1,1.6-.33,4,4,0,0,1,1.61.33,4.3,4.3,0,0,1,1.34.91,4.49,4.49,0,0,1,.92,1.35A3.84,3.84,0,0,1,858.12,461.59Zm-1.32,10.49v33.43h-5.87V472.08Z" transform="translate(0.37 -17.89)"/><path d="M880.69,471.55a17.24,17.24,0,0,1,6.62,1.22,14,14,0,0,1,5,3.47,15.27,15.27,0,0,1,3.16,5.43,23.39,23.39,0,0,1,0,14.24,15.36,15.36,0,0,1-3.16,5.41,13.87,13.87,0,0,1-5,3.45,18.83,18.83,0,0,1-13.23,0,14,14,0,0,1-5-3.45,15.59,15.59,0,0,1-3.2-5.41,23.19,23.19,0,0,1,0-14.24,15.5,15.5,0,0,1,3.2-5.43,14.2,14.2,0,0,1,5-3.47A17.22,17.22,0,0,1,880.69,471.55Zm0,29.83q4.95,0,7.4-3.31c1.62-2.21,2.44-5.3,2.44-9.26s-.82-7.08-2.44-9.3-4.1-3.34-7.4-3.34a10.26,10.26,0,0,0-4.35.86,8.12,8.12,0,0,0-3.09,2.48,11.06,11.06,0,0,0-1.85,4,21.69,21.69,0,0,0-.61,5.33,21.41,21.41,0,0,0,.61,5.31,11,11,0,0,0,1.85,3.95,8.16,8.16,0,0,0,3.09,2.46A10.26,10.26,0,0,0,880.69,501.38Z" transform="translate(0.37 -17.89)"/><path d="M903.86,505.51V472.08h3.5a1.5,1.5,0,0,1,1.58,1.22l.46,3.63a18.93,18.93,0,0,1,4.87-3.89,12.66,12.66,0,0,1,6.22-1.49,12.18,12.18,0,0,1,4.84.91,9.4,9.4,0,0,1,3.49,2.57,11.32,11.32,0,0,1,2.13,4,17.29,17.29,0,0,1,.73,5.18v21.29H925.8V484.22a9,9,0,0,0-1.73-5.89,6.49,6.49,0,0,0-5.3-2.09,9.91,9.91,0,0,0-4.86,1.25,16.15,16.15,0,0,0-4.18,3.4v24.62Z" transform="translate(0.37 -17.89)"/><path d="M59,584.71a1.49,1.49,0,0,1-1.58-1.22l-.53-4.06A17.56,17.56,0,0,1,52,583.6a12.53,12.53,0,0,1-6.32,1.57,12.2,12.2,0,0,1-5.22-1.1,10.85,10.85,0,0,1-4-3.25A15.47,15.47,0,0,1,34,575.47a27.69,27.69,0,0,1-.89-7.36,23.07,23.07,0,0,1,1-6.88,16.94,16.94,0,0,1,2.85-5.53,13.07,13.07,0,0,1,10.61-5,12,12,0,0,1,5.25,1,12.4,12.4,0,0,1,3.89,2.92V536.1h5.88v48.61Zm-11.39-4.29a9.47,9.47,0,0,0,5-1.32,14.45,14.45,0,0,0,4-3.73V559.2a9.25,9.25,0,0,0-3.54-3.05,10.33,10.33,0,0,0-4.28-.88,8.44,8.44,0,0,0-7.19,3.34q-2.51,3.33-2.51,9.5a24.34,24.34,0,0,0,.56,5.59,10.91,10.91,0,0,0,1.65,3.83,6.63,6.63,0,0,0,2.67,2.2A9,9,0,0,0,47.65,580.42Z" transform="translate(0.37 -17.89)"/><path d="M80.26,540.79a3.78,3.78,0,0,1-.35,1.6,4.82,4.82,0,0,1-.92,1.32,4.42,4.42,0,0,1-1.34.91A4.19,4.19,0,0,1,76,545a4.09,4.09,0,0,1-1.6-.33,4.36,4.36,0,0,1-2.22-2.23,3.92,3.92,0,0,1-.33-1.6,4.14,4.14,0,0,1,.33-1.64,4.43,4.43,0,0,1,.9-1.35,4.58,4.58,0,0,1,1.32-.91,3.92,3.92,0,0,1,1.6-.33,4,4,0,0,1,1.62.33,4.42,4.42,0,0,1,1.34.91,4.68,4.68,0,0,1,.92,1.35A4,4,0,0,1,80.26,540.79Zm-1.32,10.49v33.43H73.06V551.28Z" transform="translate(0.37 -17.89)"/><path d="M108.44,556.79a1.29,1.29,0,0,1-1.22.73,2.28,2.28,0,0,1-1.12-.36c-.42-.25-.93-.52-1.54-.81a13.41,13.41,0,0,0-2.16-.83,10.45,10.45,0,0,0-3-.38,8.83,8.83,0,0,0-2.67.38,6.37,6.37,0,0,0-2,1,4.6,4.6,0,0,0-1.29,1.54A4,4,0,0,0,93,560a3.14,3.14,0,0,0,.74,2.15,6.32,6.32,0,0,0,2,1.48,17.37,17.37,0,0,0,2.77,1.11c1,.32,2.1.66,3.19,1s2.15.77,3.18,1.21a11.35,11.35,0,0,1,2.77,1.65,7.11,7.11,0,0,1,2.71,5.87,10.9,10.9,0,0,1-.82,4.27,9.26,9.26,0,0,1-2.45,3.4,11.57,11.57,0,0,1-4,2.26,16.23,16.23,0,0,1-5.41.83,16.83,16.83,0,0,1-6.33-1.14,16,16,0,0,1-4.82-2.92l1.38-2.25a2.07,2.07,0,0,1,.63-.65,1.71,1.71,0,0,1,1-.24,2.22,2.22,0,0,1,1.25.47c.44.3,1,.65,1.6,1a12.9,12.9,0,0,0,2.28,1A10.33,10.33,0,0,0,98,581a9.11,9.11,0,0,0,3-.44,6.38,6.38,0,0,0,2.15-1.21,4.77,4.77,0,0,0,1.27-1.74,5.56,5.56,0,0,0,.41-2.12,3.52,3.52,0,0,0-.74-2.29,6.23,6.23,0,0,0-2-1.55,15.93,15.93,0,0,0-2.78-1.12c-1-.32-2.12-.66-3.21-1s-2.15-.75-3.2-1.2a11.82,11.82,0,0,1-2.79-1.7,7.93,7.93,0,0,1-2-2.53,8.2,8.2,0,0,1-.74-3.64,8.83,8.83,0,0,1,.79-3.68,9.07,9.07,0,0,1,2.31-3.11,11.46,11.46,0,0,1,3.73-2.13,15.12,15.12,0,0,1,5-.79,16,16,0,0,1,5.92,1,14.19,14.19,0,0,1,4.54,2.86Z" transform="translate(0.37 -17.89)"/><path d="M117.94,584.71V551.28h3.37a1.86,1.86,0,0,1,1.32.36,2.21,2.21,0,0,1,.49,1.26l.4,5.21a15.3,15.3,0,0,1,4.24-5.46,10,10,0,0,1,8.43-1.65,9,9,0,0,1,2.08.87l-.76,4.39a1,1,0,0,1-1,.83,5.46,5.46,0,0,1-1.42-.31,8.89,8.89,0,0,0-2.67-.32,7.59,7.59,0,0,0-5.13,1.78,13.34,13.34,0,0,0-3.45,5.18v21.29Z" transform="translate(0.37 -17.89)"/><path d="M149.62,551.28V572.6a8.88,8.88,0,0,0,1.75,5.87,6.51,6.51,0,0,0,5.28,2.08,10,10,0,0,0,4.85-1.22,14.94,14.94,0,0,0,4.19-3.4V551.28h5.88v33.43h-3.5a1.49,1.49,0,0,1-1.58-1.22l-.47-3.6a18.35,18.35,0,0,1-4.88,3.88,12.77,12.77,0,0,1-6.2,1.47,12,12,0,0,1-4.84-.91,9.44,9.44,0,0,1-3.51-2.56,10.76,10.76,0,0,1-2.13-4,17.92,17.92,0,0,1-.71-5.18V551.28Z" transform="translate(0.37 -17.89)"/><path d="M181.24,596V551.28h3.5a1.5,1.5,0,0,1,1.58,1.22l.49,4a18,18,0,0,1,4.9-4.19,12.51,12.51,0,0,1,6.36-1.58,12.16,12.16,0,0,1,5.21,1.1,10.8,10.8,0,0,1,4,3.27,15.8,15.8,0,0,1,2.55,5.36,27.74,27.74,0,0,1,.89,7.36,23,23,0,0,1-1,6.88,16.71,16.71,0,0,1-2.84,5.51,13.1,13.1,0,0,1-10.59,5,12.5,12.5,0,0,1-5.3-1,12,12,0,0,1-3.88-2.9V596Zm14.88-40.59a9.46,9.46,0,0,0-5,1.32,14.48,14.48,0,0,0-4,3.73v16.17a9.52,9.52,0,0,0,3.55,3.07,10.22,10.22,0,0,0,4.31.89,8.44,8.44,0,0,0,7.16-3.33c1.67-2.23,2.5-5.39,2.5-9.51a24,24,0,0,0-.57-5.61,11,11,0,0,0-1.67-3.84,6.55,6.55,0,0,0-2.67-2.2A9,9,0,0,0,196.12,555.44Z" transform="translate(0.37 -17.89)"/><path d="M227.8,585.24a8.08,8.08,0,0,1-6.09-2.21,8.83,8.83,0,0,1-2.13-6.37V556.2h-4a1.3,1.3,0,0,1-.89-.32,1.18,1.18,0,0,1-.37-1v-2.34l5.48-.7,1.35-10.32a1.29,1.29,0,0,1,.43-.81,1.36,1.36,0,0,1,.93-.32h3v11.52H235v4.26h-9.57v20.06a4.3,4.3,0,0,0,1,3.14,3.57,3.57,0,0,0,2.64,1,4.52,4.52,0,0,0,1.6-.25,6.39,6.39,0,0,0,1.17-.54c.33-.2.61-.38.84-.55a1.13,1.13,0,0,1,.61-.24,1,1,0,0,1,.83.56l1.71,2.8a10.87,10.87,0,0,1-3.66,2.23A12.4,12.4,0,0,1,227.8,585.24Z" transform="translate(0.37 -17.89)"/><path d="M255.52,550.75a14.91,14.91,0,0,1,5.54,1,12.42,12.42,0,0,1,4.39,2.9,13.28,13.28,0,0,1,2.89,4.69,18.19,18.19,0,0,1,1,6.35,3.8,3.8,0,0,1-.3,1.85A1.23,1.23,0,0,1,268,568H245.72a18.26,18.26,0,0,0,.86,5.51,11.16,11.16,0,0,0,2.17,3.91,8.82,8.82,0,0,0,3.3,2.35,11.5,11.5,0,0,0,4.29.77,12.66,12.66,0,0,0,3.82-.51,17.82,17.82,0,0,0,2.75-1.11,20.35,20.35,0,0,0,1.93-1.1,2.56,2.56,0,0,1,1.34-.51,1.27,1.27,0,0,1,1.12.56L269,580a11.34,11.34,0,0,1-2.61,2.3,16.1,16.1,0,0,1-3.25,1.6,20.48,20.48,0,0,1-3.58.94,21.7,21.7,0,0,1-3.66.31,17.05,17.05,0,0,1-6.39-1.17,14,14,0,0,1-5.05-3.43,15.82,15.82,0,0,1-3.31-5.6,22.76,22.76,0,0,1-1.19-7.65,19.57,19.57,0,0,1,1.07-6.53,15.54,15.54,0,0,1,3.09-5.27A14.32,14.32,0,0,1,249,552,16.3,16.3,0,0,1,255.52,550.75Zm.13,4.33a9.05,9.05,0,0,0-6.7,2.45,11.55,11.55,0,0,0-3,6.82H264.1a12.09,12.09,0,0,0-.56-3.75,8.49,8.49,0,0,0-1.65-2.93,7.33,7.33,0,0,0-2.66-1.92A9,9,0,0,0,255.65,555.08Zm9.57-18.19-7.69,8.52a3.28,3.28,0,0,1-.91.71,2.62,2.62,0,0,1-1.13.21H252l4.88-8a3.41,3.41,0,0,1,1-1.1,3,3,0,0,1,1.6-.35Z" transform="translate(0.37 -17.89)"/><path d="M290.1,550.75a15,15,0,0,1,5.55,1,12.47,12.47,0,0,1,4.38,2.9,13.14,13.14,0,0,1,2.89,4.69,18,18,0,0,1,1,6.35,3.8,3.8,0,0,1-.3,1.85,1.22,1.22,0,0,1-1.12.46H280.3a18.26,18.26,0,0,0,.86,5.51,11.18,11.18,0,0,0,2.18,3.91,8.66,8.66,0,0,0,3.3,2.35,11.43,11.43,0,0,0,4.29.77,12.64,12.64,0,0,0,3.81-.51,17.42,17.42,0,0,0,2.75-1.11,19.16,19.16,0,0,0,1.93-1.1,2.59,2.59,0,0,1,1.34-.51,1.27,1.27,0,0,1,1.12.56l1.65,2.14a11.09,11.09,0,0,1-2.6,2.3,16.63,16.63,0,0,1-3.25,1.6,20.59,20.59,0,0,1-3.59.94,21.7,21.7,0,0,1-3.66.31,17,17,0,0,1-6.38-1.17,14,14,0,0,1-5.05-3.43,15.69,15.69,0,0,1-3.32-5.6,22.76,22.76,0,0,1-1.19-7.65,19.32,19.32,0,0,1,1.08-6.53,15.36,15.36,0,0,1,3.08-5.27,14.27,14.27,0,0,1,4.92-3.5A16.22,16.22,0,0,1,290.1,550.75Zm.13,4.33a9.07,9.07,0,0,0-6.7,2.45,11.67,11.67,0,0,0-3,6.82h18.18a12.09,12.09,0,0,0-.56-3.75,8.18,8.18,0,0,0-1.65-2.93,7.33,7.33,0,0,0-2.66-1.92A8.93,8.93,0,0,0,290.23,555.08Z" transform="translate(0.37 -17.89)"/><path d="M348.74,584.71h-2.61a3.17,3.17,0,0,1-1.38-.26,1.47,1.47,0,0,1-.69-1.13l-.66-3.1q-1.32,1.18-2.58,2.13a14.3,14.3,0,0,1-2.64,1.58,13.63,13.63,0,0,1-2.95,1,17,17,0,0,1-3.48.33,11.68,11.68,0,0,1-3.65-.55,8.18,8.18,0,0,1-3-1.64,7.74,7.74,0,0,1-2-2.76,9.65,9.65,0,0,1-.74-4,7.35,7.35,0,0,1,1.09-3.82,9.48,9.48,0,0,1,3.51-3.27,22.92,22.92,0,0,1,6.35-2.33A43.1,43.1,0,0,1,343,566v-2.63a9.08,9.08,0,0,0-1.67-5.92,6,6,0,0,0-4.93-2,10.58,10.58,0,0,0-3.62.54,14.33,14.33,0,0,0-2.54,1.22c-.71.46-1.33.86-1.85,1.23a2.66,2.66,0,0,1-1.53.54,1.75,1.75,0,0,1-1-.31,2.41,2.41,0,0,1-.71-.78L324,556a19.1,19.1,0,0,1,6-4,18.42,18.42,0,0,1,7.09-1.32,12.83,12.83,0,0,1,5,.92,10.27,10.27,0,0,1,3.66,2.57,10.94,10.94,0,0,1,2.24,4,16.52,16.52,0,0,1,.76,5.15Zm-15.24-3.6a11.85,11.85,0,0,0,2.83-.31,11.54,11.54,0,0,0,2.43-.89,13.42,13.42,0,0,0,2.18-1.4,18.66,18.66,0,0,0,2-1.89v-6.89a39.72,39.72,0,0,0-6.9.51,19.31,19.31,0,0,0-4.62,1.35,6.41,6.41,0,0,0-2.59,1.95,4.26,4.26,0,0,0-.81,2.53,5.54,5.54,0,0,0,.43,2.29,4.22,4.22,0,0,0,1.15,1.57,4.64,4.64,0,0,0,1.72.9A7.71,7.71,0,0,0,333.5,581.11Z" transform="translate(0.37 -17.89)"/><path d="M352.37,551.28h4.82a1.8,1.8,0,0,1,1.15.36,2.08,2.08,0,0,1,.66.86L367.49,574a16.46,16.46,0,0,1,.72,2.37c.18.8.34,1.58.5,2.35.17-.77.36-1.55.56-2.35A19.73,19.73,0,0,1,370,574l8.58-21.52a1.91,1.91,0,0,1,.64-.87,1.77,1.77,0,0,1,1.11-.35h4.58l-13.63,33.43H366Z" transform="translate(0.37 -17.89)"/><path d="M402.76,550.75a15,15,0,0,1,5.55,1,12.6,12.6,0,0,1,4.39,2.9,13.26,13.26,0,0,1,2.88,4.69,18,18,0,0,1,1,6.35,4,4,0,0,1-.29,1.85,1.25,1.25,0,0,1-1.13.46H393a18.57,18.57,0,0,0,.86,5.51,11.18,11.18,0,0,0,2.18,3.91,8.66,8.66,0,0,0,3.3,2.35,11.43,11.43,0,0,0,4.29.77,12.64,12.64,0,0,0,3.81-.51,17.42,17.42,0,0,0,2.75-1.11,19.16,19.16,0,0,0,1.93-1.1,2.59,2.59,0,0,1,1.34-.51,1.26,1.26,0,0,1,1.12.56l1.65,2.14a11.09,11.09,0,0,1-2.6,2.3,16.63,16.63,0,0,1-3.25,1.6,20.71,20.71,0,0,1-3.58.94,21.91,21.91,0,0,1-3.67.31,17,17,0,0,1-6.38-1.17,14,14,0,0,1-5-3.43,15.69,15.69,0,0,1-3.32-5.6,22.76,22.76,0,0,1-1.19-7.65,19.32,19.32,0,0,1,1.08-6.53,15.36,15.36,0,0,1,3.08-5.27,14.27,14.27,0,0,1,4.92-3.5A16.22,16.22,0,0,1,402.76,550.75Zm.13,4.33a9,9,0,0,0-6.69,2.45,11.62,11.62,0,0,0-3,6.82h18.18a11.8,11.8,0,0,0-.56-3.75,8.18,8.18,0,0,0-1.65-2.93,7.3,7.3,0,0,0-2.65-1.92A9,9,0,0,0,402.89,555.08Z" transform="translate(0.37 -17.89)"/><path d="M446.92,557.22a2.89,2.89,0,0,1-.53.56,1.27,1.27,0,0,1-.76.2,1.9,1.9,0,0,1-1.07-.41,15.77,15.77,0,0,0-1.47-.91,13.12,13.12,0,0,0-2.16-.91,10.4,10.4,0,0,0-3.12-.41,10.24,10.24,0,0,0-4.33.87,8.52,8.52,0,0,0-3.15,2.53,11.56,11.56,0,0,0-1.91,4,19.77,19.77,0,0,0-.64,5.25,19.21,19.21,0,0,0,.69,5.39,11.46,11.46,0,0,0,1.95,4,8.22,8.22,0,0,0,3.05,2.45,9.42,9.42,0,0,0,4,.84,9.8,9.8,0,0,0,5.84-1.65,17.57,17.57,0,0,0,1.52-1.14,1.84,1.84,0,0,1,1.19-.51,1.23,1.23,0,0,1,1.12.56l1.65,2.14a12.58,12.58,0,0,1-5.45,3.91,19.13,19.13,0,0,1-6.89,1.24,14.65,14.65,0,0,1-5.83-1.15,13.35,13.35,0,0,1-4.67-3.35,15.67,15.67,0,0,1-3.11-5.4,23.65,23.65,0,0,1-.1-14.19,15.6,15.6,0,0,1,3-5.46,13.77,13.77,0,0,1,4.94-3.58,16.56,16.56,0,0,1,6.73-1.29,15.83,15.83,0,0,1,6.2,1.14,14.92,14.92,0,0,1,4.79,3.22Z" transform="translate(0.37 -17.89)"/><path d="M467.87,584.71V536.1h5.91v20a16.86,16.86,0,0,1,4.77-3.88,12.6,12.6,0,0,1,6.15-1.47,12.42,12.42,0,0,1,5.25,1.09,10.65,10.65,0,0,1,4,3.25,15.64,15.64,0,0,1,2.54,5.35,27.08,27.08,0,0,1,.89,7.34,23,23,0,0,1-1,6.88,16.54,16.54,0,0,1-2.85,5.51,13.58,13.58,0,0,1-4.56,3.67,13.41,13.41,0,0,1-6.05,1.33,11.26,11.26,0,0,1-5.5-1.25,12.55,12.55,0,0,1-3.94-3.5l-.3,3a1.41,1.41,0,0,1-1.51,1.25Zm14.92-29.27a9.47,9.47,0,0,0-5,1.32,14.45,14.45,0,0,0-4,3.73v16.17a9.2,9.2,0,0,0,3.51,3.07,10.22,10.22,0,0,0,4.31.89,8.46,8.46,0,0,0,7.19-3.33c1.67-2.23,2.51-5.39,2.51-9.51a23.42,23.42,0,0,0-.58-5.61,11,11,0,0,0-1.66-3.84,6.51,6.51,0,0,0-2.68-2.2A8.88,8.88,0,0,0,482.79,555.44Z" transform="translate(0.37 -17.89)"/><path d="M512.42,540.79a3.78,3.78,0,0,1-.35,1.6,4.82,4.82,0,0,1-.92,1.32,4.42,4.42,0,0,1-1.34.91,4.14,4.14,0,0,1-1.61.33,4,4,0,0,1-1.6-.33,4.49,4.49,0,0,1-1.33-.91,4.55,4.55,0,0,1-.9-1.32,3.92,3.92,0,0,1-.33-1.6,4.14,4.14,0,0,1,.33-1.64,4.43,4.43,0,0,1,.9-1.35,4.49,4.49,0,0,1,1.33-.91,3.85,3.85,0,0,1,1.6-.33,4,4,0,0,1,1.61.33,4.42,4.42,0,0,1,1.34.91,4.68,4.68,0,0,1,.92,1.35A4,4,0,0,1,512.42,540.79Zm-1.32,10.49v33.43h-5.87V551.28Z" transform="translate(0.37 -17.89)"/><path d="M534.69,550.75a15,15,0,0,1,5.55,1,12.51,12.51,0,0,1,4.39,2.9,13.43,13.43,0,0,1,2.89,4.69,18.19,18.19,0,0,1,1,6.35,3.83,3.83,0,0,1-.29,1.85,1.23,1.23,0,0,1-1.12.46H524.89a18.57,18.57,0,0,0,.86,5.51,11.34,11.34,0,0,0,2.18,3.91,8.66,8.66,0,0,0,3.3,2.35,11.5,11.5,0,0,0,4.29.77,12.64,12.64,0,0,0,3.81-.51,17.56,17.56,0,0,0,2.76-1.11,20.35,20.35,0,0,0,1.93-1.1,2.54,2.54,0,0,1,1.33-.51,1.29,1.29,0,0,1,1.13.56l1.65,2.14a11.34,11.34,0,0,1-2.61,2.3,16.36,16.36,0,0,1-3.25,1.6,20.71,20.71,0,0,1-3.58.94,21.82,21.82,0,0,1-3.67.31,17,17,0,0,1-6.38-1.17,14,14,0,0,1-5-3.43,15.84,15.84,0,0,1-3.32-5.6,22.77,22.77,0,0,1-1.18-7.65,19.32,19.32,0,0,1,1.07-6.53,15.36,15.36,0,0,1,3.08-5.27,14.36,14.36,0,0,1,4.92-3.5A16.25,16.25,0,0,1,534.69,550.75Zm.14,4.33a9.05,9.05,0,0,0-6.7,2.45,11.62,11.62,0,0,0-3,6.82h18.18a11.8,11.8,0,0,0-.56-3.75,8.18,8.18,0,0,0-1.65-2.93,7.3,7.3,0,0,0-2.65-1.92A9,9,0,0,0,534.83,555.08Z" transform="translate(0.37 -17.89)"/><path d="M556,584.71V551.28h3.5a1.5,1.5,0,0,1,1.59,1.22l.46,3.63a18.76,18.76,0,0,1,4.87-3.89,12.63,12.63,0,0,1,6.22-1.49,12.17,12.17,0,0,1,4.83.91,9.43,9.43,0,0,1,3.5,2.57,11.65,11.65,0,0,1,2.13,4,17.62,17.62,0,0,1,.72,5.18v21.29H578V563.42a9,9,0,0,0-1.73-5.89,6.5,6.5,0,0,0-5.3-2.09,10,10,0,0,0-4.87,1.25,16.11,16.11,0,0,0-4.17,3.4v24.62Z" transform="translate(0.37 -17.89)"/><path d="M587.46,551.28h4.82a1.8,1.8,0,0,1,1.15.36,2.08,2.08,0,0,1,.66.86L602.58,574a17.83,17.83,0,0,1,.72,2.37c.18.8.34,1.58.5,2.35.17-.77.36-1.55.56-2.35a19.73,19.73,0,0,1,.76-2.37l8.58-21.52a1.91,1.91,0,0,1,.64-.87,1.75,1.75,0,0,1,1.11-.35H620L606.4,584.71h-5.31Z" transform="translate(0.37 -17.89)"/><path d="M637.85,550.75a15,15,0,0,1,5.55,1,12.6,12.6,0,0,1,4.39,2.9,13.26,13.26,0,0,1,2.88,4.69,18,18,0,0,1,1,6.35,4,4,0,0,1-.29,1.85,1.25,1.25,0,0,1-1.13.46H628.05a18.57,18.57,0,0,0,.86,5.51,11.18,11.18,0,0,0,2.18,3.91,8.66,8.66,0,0,0,3.3,2.35,11.43,11.43,0,0,0,4.29.77,12.64,12.64,0,0,0,3.81-.51,17.42,17.42,0,0,0,2.75-1.11,20.65,20.65,0,0,0,1.94-1.1,2.54,2.54,0,0,1,1.33-.51,1.26,1.26,0,0,1,1.12.56l1.65,2.14a11.09,11.09,0,0,1-2.6,2.3,16.63,16.63,0,0,1-3.25,1.6,20.71,20.71,0,0,1-3.58.94,21.91,21.91,0,0,1-3.67.31A17,17,0,0,1,631.8,584a14,14,0,0,1-5-3.43,15.69,15.69,0,0,1-3.32-5.6,22.76,22.76,0,0,1-1.19-7.65,19.32,19.32,0,0,1,1.08-6.53,15.36,15.36,0,0,1,3.08-5.27,14.27,14.27,0,0,1,4.92-3.5A16.22,16.22,0,0,1,637.85,550.75Zm.13,4.33a9,9,0,0,0-6.69,2.45,11.62,11.62,0,0,0-3,6.82h18.18a11.8,11.8,0,0,0-.56-3.75,8.18,8.18,0,0,0-1.65-2.93,7.3,7.3,0,0,0-2.65-1.92A9,9,0,0,0,638,555.08Z" transform="translate(0.37 -17.89)"/><path d="M667.06,540.79a3.78,3.78,0,0,1-.35,1.6,4.82,4.82,0,0,1-.92,1.32,4.42,4.42,0,0,1-1.34.91,4.22,4.22,0,0,1-1.62.33,4.09,4.09,0,0,1-1.6-.33,4.43,4.43,0,0,1-2.23-2.23,3.92,3.92,0,0,1-.33-1.6,4.14,4.14,0,0,1,.33-1.64,4.46,4.46,0,0,1,.91-1.35,4.58,4.58,0,0,1,1.32-.91,3.92,3.92,0,0,1,1.6-.33,4,4,0,0,1,1.62.33,4.42,4.42,0,0,1,1.34.91,4.68,4.68,0,0,1,.92,1.35A4,4,0,0,1,667.06,540.79Zm-1.32,10.49v33.43h-5.88V551.28Z" transform="translate(0.37 -17.89)"/><path d="M682.63,536.1v48.61h-5.87V536.1Z" transform="translate(0.37 -17.89)"/><path d="M699.53,536.1v48.61h-5.88V536.1Z" transform="translate(0.37 -17.89)"/><path d="M734.44,584.71h-2.6a3.19,3.19,0,0,1-1.39-.26,1.47,1.47,0,0,1-.69-1.13l-.66-3.1q-1.32,1.18-2.58,2.13a14.18,14.18,0,0,1-5.59,2.56,17,17,0,0,1-3.48.33,11.68,11.68,0,0,1-3.65-.55,8.18,8.18,0,0,1-2.95-1.64,7.86,7.86,0,0,1-2-2.76,9.82,9.82,0,0,1-.74-4,7.35,7.35,0,0,1,1.09-3.82,9.56,9.56,0,0,1,3.51-3.27,23,23,0,0,1,6.35-2.33,43.1,43.1,0,0,1,9.61-.91v-2.63a9.08,9.08,0,0,0-1.67-5.92,6,6,0,0,0-4.93-2,10.58,10.58,0,0,0-3.62.54,14.67,14.67,0,0,0-2.54,1.22c-.71.46-1.33.86-1.84,1.23a2.69,2.69,0,0,1-1.54.54,1.75,1.75,0,0,1-1-.31,2.41,2.41,0,0,1-.71-.78l-1-1.88a18.94,18.94,0,0,1,6-4,18.42,18.42,0,0,1,7.09-1.32,12.83,12.83,0,0,1,5,.92,10.27,10.27,0,0,1,3.66,2.57,10.94,10.94,0,0,1,2.24,4,16.52,16.52,0,0,1,.76,5.15Zm-15.24-3.6a11.85,11.85,0,0,0,2.83-.31,11.54,11.54,0,0,0,2.43-.89,13,13,0,0,0,2.18-1.4,18.66,18.66,0,0,0,2-1.89v-6.89a39.72,39.72,0,0,0-6.9.51,19.31,19.31,0,0,0-4.62,1.35,6.41,6.41,0,0,0-2.59,1.95,4.26,4.26,0,0,0-.81,2.53,5.54,5.54,0,0,0,.43,2.29,4.24,4.24,0,0,0,1.16,1.57,4.52,4.52,0,0,0,1.71.9A7.77,7.77,0,0,0,719.2,581.11Z" transform="translate(0.37 -17.89)"/><path d="M743.35,584.71V551.28h3.5a1.49,1.49,0,0,1,1.58,1.22l.47,3.63a18.88,18.88,0,0,1,4.86-3.89,12.69,12.69,0,0,1,6.22-1.49,12.18,12.18,0,0,1,4.84.91,9.43,9.43,0,0,1,3.5,2.57,11.65,11.65,0,0,1,2.13,4,17.62,17.62,0,0,1,.72,5.18v21.29H765.3V563.42a9,9,0,0,0-1.74-5.89,6.48,6.48,0,0,0-5.29-2.09,10,10,0,0,0-4.87,1.25,16,16,0,0,0-4.17,3.4v24.62Z" transform="translate(0.37 -17.89)"/><path d="M802.85,557.22a2.62,2.62,0,0,1-.53.56,1.25,1.25,0,0,1-.76.2,1.92,1.92,0,0,1-1.07-.41,13.49,13.49,0,0,0-1.47-.91,12.42,12.42,0,0,0-2.16-.91,10.4,10.4,0,0,0-3.12-.41,10.16,10.16,0,0,0-4.32.87,8.52,8.52,0,0,0-3.15,2.53,11.4,11.4,0,0,0-1.92,4,20.19,20.19,0,0,0-.64,5.25,19.21,19.21,0,0,0,.69,5.39,11.64,11.64,0,0,0,2,4,8.3,8.3,0,0,0,3,2.45,9.46,9.46,0,0,0,4.05.84,10.38,10.38,0,0,0,3.53-.51,10.8,10.8,0,0,0,2.31-1.14c.61-.42,1.12-.8,1.52-1.14a1.81,1.81,0,0,1,1.18-.51,1.22,1.22,0,0,1,1.12.56l1.66,2.14a12.64,12.64,0,0,1-5.45,3.91,19.22,19.22,0,0,1-6.9,1.24A14.57,14.57,0,0,1,786.6,584a13.35,13.35,0,0,1-4.67-3.35,15.85,15.85,0,0,1-3.12-5.4,21.62,21.62,0,0,1-1.14-7.29,22.08,22.08,0,0,1,1-6.9,15.62,15.62,0,0,1,3-5.46,13.73,13.73,0,0,1,4.93-3.58,16.59,16.59,0,0,1,6.73-1.29,15.92,15.92,0,0,1,6.21,1.14,14.77,14.77,0,0,1,4.78,3.22Z" transform="translate(0.37 -17.89)"/><path d="M824.1,550.75a15,15,0,0,1,5.55,1,12.6,12.6,0,0,1,4.39,2.9,13.26,13.26,0,0,1,2.88,4.69,18,18,0,0,1,1,6.35,4,4,0,0,1-.29,1.85,1.25,1.25,0,0,1-1.13.46H814.3a18.57,18.57,0,0,0,.86,5.51,11.18,11.18,0,0,0,2.18,3.91,8.66,8.66,0,0,0,3.3,2.35,11.43,11.43,0,0,0,4.29.77,12.64,12.64,0,0,0,3.81-.51,17.42,17.42,0,0,0,2.75-1.11,20.65,20.65,0,0,0,1.94-1.1,2.54,2.54,0,0,1,1.33-.51,1.26,1.26,0,0,1,1.12.56l1.65,2.14a11.09,11.09,0,0,1-2.6,2.3,16.63,16.63,0,0,1-3.25,1.6,20.71,20.71,0,0,1-3.58.94,21.91,21.91,0,0,1-3.67.31,17,17,0,0,1-6.38-1.17,14,14,0,0,1-5-3.43,15.69,15.69,0,0,1-3.32-5.6,22.76,22.76,0,0,1-1.19-7.65,19.32,19.32,0,0,1,1.08-6.53,15.36,15.36,0,0,1,3.08-5.27,14.27,14.27,0,0,1,4.92-3.5A16.22,16.22,0,0,1,824.1,550.75Zm.13,4.33a9,9,0,0,0-6.69,2.45,11.62,11.62,0,0,0-3,6.82h18.18a11.8,11.8,0,0,0-.56-3.75,8.18,8.18,0,0,0-1.65-2.93,7.3,7.3,0,0,0-2.65-1.92A9,9,0,0,0,824.23,555.08Z" transform="translate(0.37 -17.89)"/><path d="M843.54,581.08a4.21,4.21,0,0,1,.31-1.62,4.36,4.36,0,0,1,.86-1.32,4.12,4.12,0,0,1,1.3-.89,4.14,4.14,0,0,1,3.24,0,4.45,4.45,0,0,1,1.32.89,4.19,4.19,0,0,1,1.19,2.94,4.12,4.12,0,0,1-.32,1.63,4.17,4.17,0,0,1-.87,1.31,4.24,4.24,0,0,1-4.56.87,3.91,3.91,0,0,1-1.3-.87,4.32,4.32,0,0,1-.86-1.31A4.12,4.12,0,0,1,843.54,581.08Z" transform="translate(0.37 -17.89)"/></svg>