<svg id="Calque_1" data-name="Calque 1" xmlns="http://www.w3.org/2000/svg" xmlns:xlink="http://www.w3.org/1999/xlink" viewBox="0 0 102 81"><defs><style>.cls-1{fill:#fff;}.cls-2,.cls-3{fill:#8ac8df;}.cls-3,.cls-4{opacity:0.75;}.cls-3{isolation:isolate;}.cls-5{mask:url(#mask);}</style><mask id="mask" x="51.19" y="0.35" width="12.85" height="5.22" maskUnits="userSpaceOnUse"><g id="mask-2"><path id="path-1" class="cls-1" d="M64,.35H51.19V5.57H64Z"/></g></mask></defs><title>Plan de travail 1</title><g id="ACCELERATEUR-DESKTOP"><g id="LOGO-PALACE"><path class="cls-2" d="M6.05,69.05a5,5,0,0,0-1.36-.19,3.34,3.34,0,0,0-1.87.47,1.44,1.44,0,0,0-.71,1.25,1.64,1.64,0,0,0,.36,1.1,2.33,2.33,0,0,0,.89.66,13.3,13.3,0,0,0,1.43.52,13.28,13.28,0,0,1,1.63.58,2.73,2.73,0,0,1,1,.84,2.28,2.28,0,0,1,.43,1.43,2.2,2.2,0,0,1-.43,1.35,2.65,2.65,0,0,1-1.2.9,4.56,4.56,0,0,1-1.8.32,5,5,0,0,1-1.92-.39,5.05,5.05,0,0,1-1.6-1l.31-.53a4.13,4.13,0,0,0,1.47,1,4.57,4.57,0,0,0,1.75.36,3.4,3.4,0,0,0,2-.53,1.65,1.65,0,0,0,.75-1.42,1.72,1.72,0,0,0-.36-1.13A2.54,2.54,0,0,0,6,73.92a13.56,13.56,0,0,0-1.45-.51,12.7,12.7,0,0,1-1.62-.59,2.66,2.66,0,0,1-1-.81,2.29,2.29,0,0,1-.41-1.41,2,2,0,0,1,.4-1.24A2.53,2.53,0,0,1,3,68.53a4.79,4.79,0,0,1,1.71-.29,5.24,5.24,0,0,1,1.5.22,5,5,0,0,1,1.32.59l-.27.53a4.28,4.28,0,0,0-1.23-.53Zm7.73,8.67a2.75,2.75,0,0,1-1.56.52A1.48,1.48,0,0,1,11,77.72a2.37,2.37,0,0,1-.42-1.53V71.54H9.51V71h1.07V69.2h.57V71h2.5v.51h-2.5v4.58c0,1,.38,1.54,1.14,1.54a2.24,2.24,0,0,0,1.27-.42l.23.48Zm6.53.51,0-1.46a2.79,2.79,0,0,1-1.2,1.11,4,4,0,0,1-1.73.36A2.7,2.7,0,0,1,16.09,78a2.15,2.15,0,0,1-.86-.77,2.11,2.11,0,0,1-.3-1.12,1.7,1.7,0,0,1,.73-1.45,3.4,3.4,0,0,1,2-.53h2.61v-.72a2,2,0,0,0-.57-1.48,2.26,2.26,0,0,0-1.63-.52,3.15,3.15,0,0,0-1.26.25,5.51,5.51,0,0,0-1.21.71l-.29-.45a6.17,6.17,0,0,1,1.39-.78,3.78,3.78,0,0,1,1.45-.27,2.8,2.8,0,0,1,2,.67,2.46,2.46,0,0,1,.71,1.83l0,4.9Zm-1.08-1a2.63,2.63,0,0,0,1.06-1.42V74.61H17.72a3.16,3.16,0,0,0-1.66.37,1.22,1.22,0,0,0-.57,1.08A1.5,1.5,0,0,0,16,77.25a2.14,2.14,0,0,0,1.42.45,3.24,3.24,0,0,0,1.79-.46Zm6-5.9a3.06,3.06,0,0,1,1.68-.51v.61a2.54,2.54,0,0,0-1.92.75,3.17,3.17,0,0,0-.82,2v4h-.59V70.85h.6V72.7A2.79,2.79,0,0,1,25.23,71.34ZM32,77.72a2.75,2.75,0,0,1-1.56.52,1.48,1.48,0,0,1-1.22-.52,2.37,2.37,0,0,1-.42-1.53V71.54H27.7V71h1.08V69.2h.56V71h2.5v.51h-2.5v4.58c0,1,.38,1.54,1.14,1.54a2.22,2.22,0,0,0,1.27-.42l.23.48Zm7.9-6.87v7.38H39.3v-2a3,3,0,0,1-1.11,1.47,3.41,3.41,0,0,1-1.85.51,2.72,2.72,0,0,1-2.06-.76,2.9,2.9,0,0,1-.74-2.12V70.85h.57v4.39A2.39,2.39,0,0,0,34.74,77a2.28,2.28,0,0,0,1.73.64,2.7,2.7,0,0,0,2.08-.88,3.43,3.43,0,0,0,.74-2.31V70.85Zm8.56.46a3.25,3.25,0,0,1,1.26,1.31,4.06,4.06,0,0,1,.45,1.92,4,4,0,0,1-.45,1.91,3.33,3.33,0,0,1-1.26,1.32,3.56,3.56,0,0,1-1.83.47,3.38,3.38,0,0,1-1.88-.52,3.3,3.3,0,0,1-1.24-1.42V81H42.9V70.85h.59v1.94a3.18,3.18,0,0,1,1.24-1.44,3.47,3.47,0,0,1,1.88-.52,3.52,3.52,0,0,1,1.83.48Zm-.34,6a2.86,2.86,0,0,0,1.09-1.12,3.4,3.4,0,0,0,.39-1.62,3.46,3.46,0,0,0-.39-1.62A2.86,2.86,0,0,0,48.1,71.8a3,3,0,0,0-1.58-.41,2.94,2.94,0,0,0-2.64,1.53,3.58,3.58,0,0,0,0,3.25A2.91,2.91,0,0,0,45,77.29a3.25,3.25,0,0,0,3.14,0ZM63,69.21a3.26,3.26,0,0,1,1,2.57,3.57,3.57,0,0,1-1,2.73,4.16,4.16,0,0,1-2.94,1H58.26v2.75H55.67V68.3H60A4.33,4.33,0,0,1,63,69.21ZM61.12,73a1.48,1.48,0,0,0,.43-1.14,1.45,1.45,0,0,0-.43-1.11,1.77,1.77,0,0,0-1.22-.39H58.26v3H59.9A1.77,1.77,0,0,0,61.12,73Zm10.06-1.82a2.58,2.58,0,0,1,.89,2v5H69.59v-.87a2.7,2.7,0,0,1-2.3,1,2.67,2.67,0,0,1-1.91-.66,2.25,2.25,0,0,1-.7-1.73,2,2,0,0,1,.76-1.7,3.39,3.39,0,0,1,2.16-.62h2v-.09a1,1,0,0,0-.37-.85,1.69,1.69,0,0,0-1.08-.3,4.09,4.09,0,0,0-1.08.16,6.17,6.17,0,0,0-1.21.45l-.69-1.7A10.4,10.4,0,0,1,67,70.67a7.39,7.39,0,0,1,1.77-.2,3.69,3.69,0,0,1,2.45.73Zm-2.12,5.16a1.16,1.16,0,0,0,.53-.71V75H68.1c-.71,0-1.06.26-1.06.79a.77.77,0,0,0,.27.63,1.14,1.14,0,0,0,.76.24,1.85,1.85,0,0,0,1-.28Zm4.77-8.63h2.51V78.23H73.83Zm10.41,3.47a2.57,2.57,0,0,1,.88,2v5H82.65v-.87a2.71,2.71,0,0,1-2.3,1,2.66,2.66,0,0,1-1.91-.66,2.25,2.25,0,0,1-.7-1.73,2.07,2.07,0,0,1,.75-1.7,3.44,3.44,0,0,1,2.17-.62h2v-.09a1,1,0,0,0-.37-.85,1.69,1.69,0,0,0-1.08-.3,4.09,4.09,0,0,0-1.08.16,5.94,5.94,0,0,0-1.21.45l-.69-1.7A10.32,10.32,0,0,1,80,70.67a7.42,7.42,0,0,1,1.78-.2,3.69,3.69,0,0,1,2.45.73Zm-2.12,5.16a1.16,1.16,0,0,0,.53-.71V75H81.16c-.71,0-1.06.26-1.06.79a.77.77,0,0,0,.27.63,1.14,1.14,0,0,0,.76.24,1.85,1.85,0,0,0,1-.28Zm8.13-3.79a1.34,1.34,0,0,0-1.1.52,2.3,2.3,0,0,0,0,2.68,1.36,1.36,0,0,0,1.1.51,1.59,1.59,0,0,0,1.5-.86l1.85,1.06a3.19,3.19,0,0,1-1.36,1.36,4.45,4.45,0,0,1-2.12.48,4.26,4.26,0,0,1-2.06-.48,3.41,3.41,0,0,1-1.38-1.36,4.16,4.16,0,0,1-.48-2,4.22,4.22,0,0,1,.49-2.07A3.38,3.38,0,0,1,88.08,71a4.22,4.22,0,0,1,2.07-.49,4.31,4.31,0,0,1,2,.47,3.45,3.45,0,0,1,1.39,1.34l-1.82,1.06a1.73,1.73,0,0,0-1.5-.79Zm10.73-1a4.34,4.34,0,0,1,1,3c0,.2,0,.35,0,.46H96.66a1.84,1.84,0,0,0,.63,1,1.76,1.76,0,0,0,1.1.34,2.45,2.45,0,0,0,1-.19,3.09,3.09,0,0,0,.84-.58L101.5,77a3.86,3.86,0,0,1-1.43,1,5,5,0,0,1-1.9.34A4.6,4.6,0,0,1,96,77.83a3.28,3.28,0,0,1-1.4-1.36,4.05,4.05,0,0,1-.49-2,4.23,4.23,0,0,1,.5-2.07A3.38,3.38,0,0,1,96,71a4.3,4.3,0,0,1,2.09-.49A3.69,3.69,0,0,1,101,71.58Zm-1.44,2.14a1.48,1.48,0,0,0-.39-1.07,1.48,1.48,0,0,0-2,0,2,2,0,0,0-.53,1.07Z"/><g id="Page-1-Copy"><path id="Fill-1" class="cls-3" d="M28.9,31.36H73.65v-.95H28.9Z"/><path id="Fill-3" class="cls-3" d="M1.29,64.07h100v-1.9H1.29Z"/><path id="Fill-5" class="cls-2" d="M63.66,44.7V39c0-2.95,2.86-4.79,2.86-4.79s2.86,1.84,2.86,4.79V44.7ZM33.19,39c0-2.95,2.85-4.79,2.85-4.79S38.9,36.06,38.9,39V44.7H33.18V39Zm21,5.69H48.42V39c0-2.95,2.86-4.79,2.86-4.79s2.86,1.84,2.86,4.79V44.7Zm-7.62,0H40.81V39c0-2.95,2.86-4.79,2.86-4.79s2.85,1.84,2.85,4.79Zm15.24,0H56V39c0-2.95,2.86-4.79,2.86-4.79s2.86,1.84,2.86,4.79V44.7Zm11.9-11.43v-1H28.9v1h1V44.7h-1v.95h1V57.88h3.33V51.22c0-2.95,2.86-4.8,2.86-4.8s2.86,1.85,2.86,4.8v6.66h1.91V51.22c0-2.95,2.86-4.8,2.86-4.8s2.85,1.85,2.85,4.8v6.66h1.9V51.22c0-2.95,2.86-4.8,2.86-4.8s2.86,1.85,2.86,4.8v6.66H56V51.23c0-3,2.86-4.81,2.86-4.81s2.85,1.85,2.85,4.81v6.65h1.9V51.23c0-3,2.86-4.81,2.86-4.81s2.87,1.85,2.87,4.81v6.65H72.7V45.66h1v-.95h-1V33.27h1Z"/><path id="Fill-7" class="cls-3" d="M6.05,61.22H96.51V59.31H6.05Z"/><path id="Fill-9" class="cls-2" d="M87.58,39.46V36.54a2.8,2.8,0,0,1,1.19-2.08A2.8,2.8,0,0,1,90,36.54v2.92Zm0,7.16V43.69a2.77,2.77,0,0,1,1.19-2.08A2.77,2.77,0,0,1,90,43.69v2.93Zm4-13.35v-1H85.92v1h.47v6.19h-.47v.95h.47v6.21h-.47v.94h.47V57.88h4.76V47.56h.48v-.94h-.48V40.41h.48v-.95h-.48V33.27Z"/><path id="Fill-11" class="cls-2" d="M13.19,39.46V36.54a2.8,2.8,0,0,1,1.19-2.08,2.8,2.8,0,0,1,1.19,2.08v2.92Zm0,7.16V43.69a2.77,2.77,0,0,1,1.19-2.08,2.77,2.77,0,0,1,1.19,2.08v2.93Zm4-13.35v-1H11.52v1H12v6.19h-.48v.95H12v6.21h-.48v.94H12V57.88h4.76V47.56h.47v-.94h-.47V40.41h.47v-.95h-.47V33.27Z"/><path id="Fill-13" class="cls-2" d="M21.76,42.32V39.41A2.8,2.8,0,0,1,23,37.32a2.8,2.8,0,0,1,1.19,2.09v2.91Zm0,7.14V46.55A2.83,2.83,0,0,1,23,44.46a2.83,2.83,0,0,1,1.19,2.09v2.91Zm4-13.33v-1H20.1v1h.47v6.19H20.1v1h.47v6.19H20.1v1h.47v7.46h4.76V50.42h.48v-1h-.48V43.27h.48v-1h-.48V36.13Z"/><path id="Fill-15" class="cls-2" d="M79,42.32V39.41a2.8,2.8,0,0,1,1.19-2.09,2.8,2.8,0,0,1,1.19,2.09v2.91Zm0,7.14V46.55a2.83,2.83,0,0,1,1.19-2.09,2.83,2.83,0,0,1,1.19,2.09v2.91Zm4-13.33v-1H77.35v1h.48v6.19h-.48v1h.48v6.19h-.48v1h.48v7.46h4.76V50.42h.47v-1h-.47V43.27h.47v-1h-.47V36.13Z"/><path id="Fill-43" class="cls-2" d="M88.77,28.5a2.86,2.86,0,0,0-2.85,2.86h5.71a2.86,2.86,0,0,0-2.86-2.86m0,1a1.91,1.91,0,0,1,1.65.95h-3.3a1.9,1.9,0,0,1,1.65-.95"/><path id="Fill-45" class="cls-2" d="M80.2,31.35a2.86,2.86,0,0,0-2.85,2.87h5.71a2.87,2.87,0,0,0-2.86-2.87m0,1a1.89,1.89,0,0,1,1.65,1H78.56a1.9,1.9,0,0,1,1.64-1"/><path id="Fill-47" class="cls-2" d="M14.38,28.5a2.86,2.86,0,0,0-2.86,2.86h5.71a2.85,2.85,0,0,0-2.85-2.86m0,1a1.91,1.91,0,0,1,1.65.95h-3.3a1.91,1.91,0,0,1,1.65-.95"/><path id="Fill-49" class="cls-2" d="M23,31.35a2.87,2.87,0,0,0-2.86,2.87h5.72A2.87,2.87,0,0,0,23,31.35m0,1a1.92,1.92,0,0,1,1.65,1H21.3a1.92,1.92,0,0,1,1.65-1"/><path id="Fill-51" class="cls-2" d="M14.77,27.22a.47.47,0,0,0-.48-.47.48.48,0,1,0,.48.47"/><path id="Fill-53" class="cls-2" d="M23.34,30.08a.48.48,0,1,0-.48.48.48.48,0,0,0,.48-.48"/><path id="Fill-55" class="cls-2" d="M89.16,27.22a.48.48,0,1,0-.48.48.47.47,0,0,0,.48-.48"/><path id="Fill-57" class="cls-2" d="M80.59,30.08a.48.48,0,1,0-.47.48.48.48,0,0,0,.47-.48"/><path id="Fill-59" class="cls-2" d="M68.88,28.39c-.3-7.95-4.31-14.78-10-18.07A20.52,20.52,0,0,1,71.73,28.39Zm-4.76,0c-.23-7.84-3.4-14.88-7.68-18.18,6.44,2.57,11.16,9.7,11.48,18.18Zm-5.71,0c-.16-8.65-2.48-15.92-5-18.82,5.5,1.94,9.46,10.65,9.75,18.82Zm-6.66,0v-19c2.23,1.25,5.51,8.71,5.71,19Zm-6.79,0c.2-10.56,3.62-18.11,5.84-19.11V28.39Zm-5.71,0c.29-9.51,4.9-16.88,9.69-18.75C46.45,12.58,44.16,19.81,44,28.39Zm-4.76,0c.33-8.48,5-15.6,11.48-18.18-4.27,3.3-7.43,10.34-7.67,18.18Zm-3.66,0A20.52,20.52,0,0,1,43.25,10.51c-5.54,3.35-9.42,10.08-9.71,17.88ZM51.28,7.91A21.44,21.44,0,0,0,29.85,29.35H72.7A21.43,21.43,0,0,0,51.28,7.91Z"/><path id="Fill-61" class="cls-2" d="M51.67,6.05a.49.49,0,0,0-.48-.48.48.48,0,0,0-.48.48.48.48,0,0,0,.95,0"/><path id="Fill-63" class="cls-3" d="M88.74,25.91a5.18,5.18,0,0,0,4.76,0,5.63,5.63,0,0,1,4.77-.75s-1.63-1.51-4.77-.37c1.27-1.49,4.77-1.26,4.77-1.26a6.13,6.13,0,0,0-4.77,0,5.75,5.75,0,0,1-4.76,0v2.38Z"/><path id="Fill-65" class="cls-3" d="M22.86,27.53a2.31,2.31,0,0,1,1.9,0,2,2,0,0,0,2.52-.13,1.93,1.93,0,0,1-2.52.87c1,1.14,2.87.21,2.87.21s-1.52,1.22-2.87.63-1.9,0-1.9,0V27.53Z"/><path id="Fill-67" class="cls-3" d="M14.29,25.93a5.18,5.18,0,0,0,4.76,0,5.58,5.58,0,0,1,4.76-.74s-1.62-1.51-4.76-.38c1.27-1.49,4.76-1.26,4.76-1.26a6.11,6.11,0,0,0-4.76,0,5.75,5.75,0,0,1-4.76,0Z"/><g id="Group-71" class="cls-4"><g class="cls-5"><path id="Fill-69" class="cls-2" d="M51.19,4.67s2.24,2,5.71,0C61,2.26,64,3.55,64,3.55S61.6,1.29,56.9,3C58.8.76,64,1.1,64,1.1s-3.75-1.69-7.13,0c-3.58,1.78-5.72,0-5.72,0V4.67Z"/></g></g><path id="Fill-72" class="cls-3" d="M80.12,27.53a2.28,2.28,0,0,1,1.89,0,2,2,0,0,0,2.52-.13,1.94,1.94,0,0,1-2.52.87c1,1.14,2.87.21,2.87.21s-1.52,1.22-2.87.63-1.89,0-1.89,0V27.53Z"/></g></g></g></svg>